<?xml version="1.0" encoding="UTF-8" standalone="no"?>
<!DOCTYPE svg PUBLIC "-//W3C//DTD SVG 1.1//EN" "http://www.w3.org/Graphics/SVG/1.1/DTD/svg11.dtd">
<svg width="100%" height="100%" viewBox="0 0 368 188" version="1.1" xmlns="http://www.w3.org/2000/svg" xmlns:xlink="http://www.w3.org/1999/xlink" xml:space="preserve" xmlns:serif="http://www.serif.com/" style="fill-rule:evenodd;clip-rule:evenodd;stroke-linecap:round;stroke-linejoin:round;stroke-miterlimit:18;">
    <g transform="matrix(1,0,0,1,-1027.05897,0)">
        <g id="Artboard4" transform="matrix(0.95059,0,0,0.758842,59.148598,134.481369)">
            <rect x="1018.22" y="-177.219" width="387.091" height="246.802" style="fill:none;"/>
            <g transform="matrix(1.468243,0.374794,-0.299192,1.839247,-543.328771,-705.562668)">
                <path d="M1204.906,66.532L1206.287,73.255C1208.959,73.664 1211.579,74.366 1214.098,75.348L1218.655,70.216C1221.206,71.376 1223.638,72.78 1225.917,74.408L1223.751,80.921C1225.862,82.612 1227.779,84.53 1229.47,86.64L1235.983,84.474C1237.611,86.753 1239.016,89.185 1240.175,91.736L1235.043,96.293C1236.025,98.812 1236.727,101.432 1237.136,104.104L1243.859,105.485C1244.13,108.274 1244.13,111.082 1243.859,113.87L1237.136,115.251C1236.727,117.924 1236.025,120.544 1235.043,123.063L1240.175,127.62C1239.016,130.171 1237.611,132.602 1235.983,134.882L1229.47,132.716C1227.779,134.826 1225.862,136.744 1223.751,138.434L1225.917,144.947C1223.638,146.576 1221.206,147.98 1218.655,149.14L1214.098,144.008C1211.579,144.99 1208.959,145.692 1206.287,146.101L1204.906,152.824C1202.117,153.095 1199.309,153.095 1196.521,152.824L1195.14,146.101C1192.467,145.692 1189.847,144.99 1187.328,144.008L1182.771,149.14C1180.22,147.98 1177.789,146.576 1175.509,144.947L1177.675,138.434C1175.565,136.744 1173.647,134.826 1171.957,132.716L1165.444,134.882C1163.815,132.602 1162.411,130.171 1161.251,127.62L1166.383,123.063C1165.401,120.544 1164.699,117.924 1164.29,115.251L1157.567,113.87C1157.296,111.082 1157.296,108.274 1157.567,105.485L1164.29,104.104C1164.699,101.432 1165.401,98.812 1166.383,96.293L1161.251,91.736C1162.411,89.185 1163.815,86.753 1165.444,84.474L1171.957,86.64C1173.647,84.53 1175.565,82.612 1177.675,80.921L1175.509,74.408C1177.789,72.78 1180.22,71.376 1182.771,70.216L1187.328,75.348C1189.847,74.366 1192.467,73.664 1195.14,73.255L1196.521,66.532C1199.309,66.261 1202.117,66.261 1204.906,66.532ZM1200.713,101.008C1205.498,101.008 1209.383,104.893 1209.383,109.678C1209.383,114.463 1205.498,118.348 1200.713,118.348C1195.928,118.348 1192.043,114.463 1192.043,109.678C1192.043,104.893 1195.928,101.008 1200.713,101.008Z" style="fill-opacity:0;stroke:rgb(255,215,108);stroke-width:3.51px;"/>
            </g>
            <g transform="matrix(0.87616,0.223654,-0.17854,1.097553,154.360232,-442.740442)">
                <path d="M1204.906,66.532L1206.287,73.255C1208.959,73.664 1211.579,74.366 1214.098,75.348L1218.655,70.216C1221.206,71.376 1223.638,72.78 1225.917,74.408L1223.751,80.921C1225.862,82.612 1227.779,84.53 1229.47,86.64L1235.983,84.474C1237.611,86.753 1239.016,89.185 1240.175,91.736L1235.043,96.293C1236.025,98.812 1236.727,101.432 1237.136,104.104L1243.859,105.485C1244.13,108.274 1244.13,111.082 1243.859,113.87L1237.136,115.251C1236.727,117.924 1236.025,120.544 1235.043,123.063L1240.175,127.62C1239.016,130.171 1237.611,132.602 1235.983,134.882L1229.47,132.716C1227.779,134.826 1225.862,136.744 1223.751,138.434L1225.917,144.947C1223.638,146.576 1221.206,147.98 1218.655,149.14L1214.098,144.008C1211.579,144.99 1208.959,145.692 1206.287,146.101L1204.906,152.824C1202.117,153.095 1199.309,153.095 1196.521,152.824L1195.14,146.101C1192.467,145.692 1189.847,144.99 1187.328,144.008L1182.771,149.14C1180.22,147.98 1177.789,146.576 1175.509,144.947L1177.675,138.434C1175.565,136.744 1173.647,134.826 1171.957,132.716L1165.444,134.882C1163.815,132.602 1162.411,130.171 1161.251,127.62L1166.383,123.063C1165.401,120.544 1164.699,117.924 1164.29,115.251L1157.567,113.87C1157.296,111.082 1157.296,108.274 1157.567,105.485L1164.29,104.104C1164.699,101.432 1165.401,98.812 1166.383,96.293L1161.251,91.736C1162.411,89.185 1163.815,86.753 1165.444,84.474L1171.957,86.64C1173.647,84.53 1175.565,82.612 1177.675,80.921L1175.509,74.408C1177.789,72.78 1180.22,71.376 1182.771,70.216L1187.328,75.348C1189.847,74.366 1192.467,73.664 1195.14,73.255L1196.521,66.532C1199.309,66.261 1202.117,66.261 1204.906,66.532ZM1200.713,101.008C1205.498,101.008 1209.383,104.893 1209.383,109.678C1209.383,114.463 1205.498,118.348 1200.713,118.348C1195.928,118.348 1192.043,114.463 1192.043,109.678C1192.043,104.893 1195.928,101.008 1200.713,101.008Z" style="fill:rgb(255,215,108);"/>
            </g>
            <g transform="matrix(0.87616,0.223654,-0.17854,1.097553,154.360232,-442.740442)">
                <path d="M1204.906,66.532L1206.287,73.255C1208.959,73.664 1211.579,74.366 1214.098,75.348L1218.655,70.216C1221.206,71.376 1223.638,72.78 1225.917,74.408L1223.751,80.921C1225.862,82.612 1227.779,84.53 1229.47,86.64L1235.983,84.474C1237.611,86.753 1239.016,89.185 1240.175,91.736L1235.043,96.293C1236.025,98.812 1236.727,101.432 1237.136,104.104L1243.859,105.485C1244.13,108.274 1244.13,111.082 1243.859,113.87L1237.136,115.251C1236.727,117.924 1236.025,120.544 1235.043,123.063L1240.175,127.62C1239.016,130.171 1237.611,132.602 1235.983,134.882L1229.47,132.716C1227.779,134.826 1225.862,136.744 1223.751,138.434L1225.917,144.947C1223.638,146.576 1221.206,147.98 1218.655,149.14L1214.098,144.008C1211.579,144.99 1208.959,145.692 1206.287,146.101L1204.906,152.824C1202.117,153.095 1199.309,153.095 1196.521,152.824L1195.14,146.101C1192.467,145.692 1189.847,144.99 1187.328,144.008L1182.771,149.14C1180.22,147.98 1177.789,146.576 1175.509,144.947L1177.675,138.434C1175.565,136.744 1173.647,134.826 1171.957,132.716L1165.444,134.882C1163.815,132.602 1162.411,130.171 1161.251,127.62L1166.383,123.063C1165.401,120.544 1164.699,117.924 1164.29,115.251L1157.567,113.87C1157.296,111.082 1157.296,108.274 1157.567,105.485L1164.29,104.104C1164.699,101.432 1165.401,98.812 1166.383,96.293L1161.251,91.736C1162.411,89.185 1163.815,86.753 1165.444,84.474L1171.957,86.64C1173.647,84.53 1175.565,82.612 1177.675,80.921L1175.509,74.408C1177.789,72.78 1180.22,71.376 1182.771,70.216L1187.328,75.348C1189.847,74.366 1192.467,73.664 1195.14,73.255L1196.521,66.532C1199.309,66.261 1202.117,66.261 1204.906,66.532ZM1200.713,101.008C1205.498,101.008 1209.383,104.893 1209.383,109.678C1209.383,114.463 1205.498,118.348 1200.713,118.348C1195.928,118.348 1192.043,114.463 1192.043,109.678C1192.043,104.893 1195.928,101.008 1200.713,101.008Z" style="fill:rgb(255,215,108);"/>
            </g>
            <g transform="matrix(0.789218,0,0,1.317798,233.247478,-177.219298)">
                <path d="M1152.364,129.953L1081.055,129.987C1054.317,129.987 1098.566,113.701 1098.566,93.642C1098.566,73.583 1054.317,57.297 1081.055,57.297L1141.682,57.297C1141.656,57.323 1141.631,57.35 1141.605,57.376L1149.425,65.197C1146.642,68.434 1144.344,71.89 1142.57,75.504L1129.538,75.519C1127.977,79.334 1126.913,83.253 1126.36,87.222L1138.344,91.062C1138.091,94.908 1138.404,98.764 1139.276,102.559L1128.001,107.46C1129.192,111.35 1130.882,115.143 1133.048,118.788L1145.985,117.618C1148.33,121.044 1151.171,124.265 1154.456,127.225L1152.364,129.953ZM1264.092,57.303L1348.781,57.297C1375.518,57.297 1397.226,73.583 1397.226,93.642C1397.226,113.701 1375.518,129.987 1348.781,129.987L1274.752,129.987C1274.778,129.96 1274.804,129.934 1274.829,129.907L1267.01,122.087C1269.792,118.85 1272.091,115.394 1273.865,111.78L1286.896,111.764C1288.457,107.95 1289.522,104.03 1290.075,100.061L1278.091,96.222C1278.343,92.375 1278.03,88.52 1277.158,84.725L1288.433,79.823C1287.243,75.934 1285.553,72.14 1283.386,68.496L1270.449,69.666C1268.104,66.24 1265.263,63.018 1261.979,60.059L1264.092,57.303Z" style="fill:rgb(255,215,108);"/>
            </g>
            <g transform="matrix(0,3.031537,-1.35555,0,1405.310877,-4082.395016)">
                <path d="M1328.889,37.904L1353.077,93.642L1304.702,93.642L1328.889,37.904Z" style="fill:rgb(255,215,108);stroke:rgb(255,215,108);stroke-width:10.01px;"/>
            </g>
            <g transform="matrix(1.051978,0,0,1.317798,-62.223024,-177.219298)">
                <circle cx="1187.304" cy="93.642" r="11.356" style="fill:rgb(255,215,108);stroke:rgb(255,215,108);stroke-width:19.94px;"/>
            </g>
        </g>
    </g>
</svg>
