<?xml version="1.0" encoding="UTF-8" standalone="no"?>
<!DOCTYPE svg PUBLIC "-//W3C//DTD SVG 1.1//EN" "http://www.w3.org/Graphics/SVG/1.1/DTD/svg11.dtd">
<svg width="100%" height="100%" viewBox="0 0 150 150" version="1.1" xmlns="http://www.w3.org/2000/svg" xmlns:xlink="http://www.w3.org/1999/xlink" xml:space="preserve" xmlns:serif="http://www.serif.com/" style="fill-rule:evenodd;clip-rule:evenodd;stroke-linejoin:round;stroke-miterlimit:2;">
    <g transform="matrix(1,0,0,1,-761,0)">
        <g id="Artboard3" transform="matrix(0.892651,0,0,0.840142,81.127359,241.544118)">
            <rect x="761.633" y="-287.504" width="168.039" height="178.541" style="fill:none;"/>
            <g transform="matrix(1.120258,0,0,1.190275,-90.883607,-287.503822)">
                <path d="M830.142,15.919C831.102,13.526 833.422,11.957 836,11.957C838.578,11.957 840.898,13.526 841.858,15.919L855.047,48.785L890.38,51.172C892.952,51.345 895.16,53.066 895.957,55.519C896.754,57.971 895.979,60.661 894,62.314L866.818,85.013L875.466,119.355C876.096,121.855 875.142,124.487 873.056,126.003C870.97,127.518 868.171,127.613 865.988,126.241L836,107.404L806.012,126.241C803.829,127.613 801.03,127.518 798.944,126.003C796.858,124.487 795.904,121.855 796.534,119.355L805.182,85.013L778,62.314C776.021,60.661 775.246,57.971 776.043,55.519C776.84,53.066 779.048,51.345 781.62,51.172L816.953,48.785L830.142,15.919Z" style="fill:rgb(255,215,108);"/>
            </g>
        </g>
    </g>
</svg>
