<?xml version="1.0" encoding="UTF-8" standalone="no"?>
<!DOCTYPE svg PUBLIC "-//W3C//DTD SVG 1.1//EN" "http://www.w3.org/Graphics/SVG/1.1/DTD/svg11.dtd">
<svg width="100%" height="100%" viewBox="0 0 368 188" version="1.1" xmlns="http://www.w3.org/2000/svg" xmlns:xlink="http://www.w3.org/1999/xlink" xml:space="preserve" xmlns:serif="http://www.serif.com/" style="fill-rule:evenodd;clip-rule:evenodd;stroke-linejoin:round;stroke-miterlimit:2;">
    <g transform="matrix(1,0,0,1,-1025.31642,-0)">
        <g id="Artboard4" transform="matrix(0.95059,0,0,0.758842,57.406048,134.481369)">
            <rect x="1018.22" y="-177.219" width="387.091" height="246.802" style="fill:none;"/>
            <g transform="matrix(1.051978,0,0,1.317798,-60.3899,-177.219298)">
                <path d="M1150.864,109.678C1144.169,107.593 1137.55,105.389 1131.013,103.063C1101.683,92.627 1073.992,79.733 1048.414,64.109C1043.704,61.232 1042.216,55.072 1045.093,50.362C1047.97,45.652 1054.129,44.164 1058.839,47.041C1083.263,61.96 1109.712,74.256 1137.717,84.22C1142.063,85.767 1146.446,87.257 1150.864,88.692L1150.864,109.678ZM1252.76,111.745C1275.921,115.026 1299.612,117.225 1323.648,118.458L1307.604,107.651C1303.027,104.567 1301.814,98.348 1304.897,93.77C1307.98,89.193 1314.2,87.98 1318.778,91.063L1376.074,129.658L1318.411,167.703C1313.804,170.743 1307.596,169.47 1304.557,164.863C1301.517,160.257 1302.79,154.049 1307.397,151.009L1326.196,138.606C1301.303,137.426 1276.76,135.238 1252.76,131.93L1252.76,111.745Z" style="fill:rgb(255,215,108);"/>
            </g>
            <g transform="matrix(0.87616,0.223654,-0.17854,1.097553,170.299499,-421.608044)">
                <path d="M1204.906,66.532L1206.287,73.255C1208.959,73.664 1211.579,74.366 1214.098,75.348L1218.655,70.216C1221.206,71.376 1223.638,72.78 1225.917,74.408L1223.751,80.921C1225.862,82.612 1227.779,84.53 1229.47,86.64L1235.983,84.474C1237.611,86.753 1239.016,89.185 1240.175,91.736L1235.043,96.293C1236.025,98.812 1236.727,101.432 1237.136,104.104L1243.859,105.485C1244.13,108.274 1244.13,111.082 1243.859,113.87L1237.136,115.251C1236.727,117.924 1236.025,120.544 1235.043,123.063L1240.175,127.62C1239.016,130.171 1237.611,132.602 1235.983,134.882L1229.47,132.716C1227.779,134.826 1225.862,136.744 1223.751,138.434L1225.917,144.947C1223.638,146.576 1221.206,147.98 1218.655,149.14L1214.098,144.008C1211.579,144.99 1208.959,145.692 1206.287,146.101L1204.906,152.824C1202.117,153.095 1199.309,153.095 1196.521,152.824L1195.14,146.101C1192.467,145.692 1189.847,144.99 1187.328,144.008L1182.771,149.14C1180.22,147.98 1177.789,146.576 1175.509,144.947L1177.675,138.434C1175.565,136.744 1173.647,134.826 1171.957,132.716L1165.444,134.882C1163.815,132.602 1162.411,130.171 1161.251,127.62L1166.383,123.063C1165.401,120.544 1164.699,117.924 1164.29,115.251L1157.567,113.87C1157.296,111.082 1157.296,108.274 1157.567,105.485L1164.29,104.104C1164.699,101.432 1165.401,98.812 1166.383,96.293L1161.251,91.736C1162.411,89.185 1163.815,86.753 1165.444,84.474L1171.957,86.64C1173.647,84.53 1175.565,82.612 1177.675,80.921L1175.509,74.408C1177.789,72.78 1180.22,71.376 1182.771,70.216L1187.328,75.348C1189.847,74.366 1192.467,73.664 1195.14,73.255L1196.521,66.532C1199.309,66.261 1202.117,66.261 1204.906,66.532ZM1200.713,101.008C1205.498,101.008 1209.383,104.893 1209.383,109.678C1209.383,114.463 1205.498,118.348 1200.713,118.348C1195.928,118.348 1192.043,114.463 1192.043,109.678C1192.043,104.893 1195.928,101.008 1200.713,101.008Z" style="fill:rgb(255,215,108);"/>
            </g>
        </g>
    </g>
</svg>
