<?xml version="1.0" encoding="UTF-8" standalone="no"?>
<svg
   xmlns:dc="http://purl.org/dc/elements/1.1/"
   xmlns:cc="http://creativecommons.org/ns#"
   xmlns:rdf="http://www.w3.org/1999/02/22-rdf-syntax-ns#"
   xmlns:svg="http://www.w3.org/2000/svg"
   xmlns="http://www.w3.org/2000/svg"
   xmlns:sodipodi="http://sodipodi.sourceforge.net/DTD/sodipodi-0.dtd"
   xmlns:inkscape="http://www.inkscape.org/namespaces/inkscape"
   inkscape:version="1.0 (4035a4fb49, 2020-05-01)"
   sodipodi:docname="cookie.svg"
   id="svg918"
   version="1.1"
   fill="none"
   viewBox="0 0 183 203"
   height="203"
   width="183">
  <metadata
     id="metadata924">
    <rdf:RDF>
      <cc:Work
         rdf:about="">
        <dc:format>image/svg+xml</dc:format>
        <dc:type
           rdf:resource="http://purl.org/dc/dcmitype/StillImage" />
      </cc:Work>
    </rdf:RDF>
  </metadata>
  <defs
     id="defs922" />
  <sodipodi:namedview
     inkscape:current-layer="svg918"
     inkscape:window-maximized="1"
     inkscape:window-y="-8"
     inkscape:window-x="-8"
     inkscape:cy="95.065825"
     inkscape:cx="71.860251"
     inkscape:zoom="2.9607919"
     showgrid="false"
     id="namedview920"
     inkscape:window-height="1017"
     inkscape:window-width="1920"
     inkscape:pageshadow="2"
     inkscape:pageopacity="0"
     guidetolerance="10"
     gridtolerance="10"
     objecttolerance="10"
     borderopacity="1"
     bordercolor="#666666"
     pagecolor="#ffffff" />
  <path
     style="stroke:#202020;stroke-opacity:1"
     id="path890"
     stroke-width="10"
     stroke="black"
     d="M108.745 92.1347C80.8775 97.3239 62.6656 123.08 67.551 149.317C72.4364 175.553 98.6984 193.028 126.566 187.839C154.434 182.65 172.646 156.894 167.76 130.657C162.875 104.421 136.613 86.9456 108.745 92.1347Z" />
  <ellipse
     style="fill:#202020;fill-opacity:1"
     id="ellipse892"
     fill="black"
     transform="rotate(-79.452 91.5749 125.084)"
     ry="9.34579"
     rx="9.25671"
     cy="125.084"
     cx="91.5749" />
  <ellipse
     style="fill:#202020;fill-opacity:1"
     id="ellipse894"
     fill="black"
     transform="rotate(-79.452 126.308 122.538)"
     ry="11.2811"
     rx="11.1736"
     cy="122.538"
     cx="126.308" />
  <ellipse
     style="fill:#202020;fill-opacity:1"
     id="ellipse896"
     fill="black"
     transform="rotate(-79.452 119.219 164.795)"
     ry="13.0378"
     rx="12.9135"
     cy="164.795"
     cx="119.219" />
  <rect
     style="fill:#202020;fill-opacity:1"
     id="rect898"
     fill="black"
     height="4.5675"
     width="8.12"
     y="145.145"
     x="80.6925" />
  <rect
     style="fill:#202020;fill-opacity:1"
     id="rect900"
     fill="black"
     height="4.5675"
     width="8.12"
     y="132.457"
     x="153.265" />
  <rect
     style="fill:#202020;fill-opacity:1"
     id="rect902"
     fill="black"
     height="4.5675"
     width="8.12"
     y="150.727"
     x="88.8125" />
  <rect
     style="fill:#202020;fill-opacity:1"
     id="rect904"
     fill="black"
     height="4.5675"
     width="8.12"
     y="142.607"
     x="155.295" />
  <rect
     style="fill:#202020;fill-opacity:1"
     id="rect906"
     fill="black"
     height="4.5675"
     width="8.12"
     y="153.265"
     x="76.6325" />
  <rect
     style="fill:#202020;fill-opacity:1"
     id="rect908"
     fill="black"
     height="4.5675"
     width="8.12"
     y="139.055"
     x="143.115" />
  <rect
     style="fill:#ffffff;fill-opacity:1"
     id="rect910"
     fill="#ECD8D8"
     transform="matrix(0.866132 0.499816 0.499816 -0.866132 60.0001 125.993)"
     height="28.8558"
     width="15.4388" />
  <path
     style="fill:#202020;fill-opacity:1"
     id="path912"
     fill="black"
     d="M63.2318 123.793C65.2164 125.443 68.2201 123.983 68.1486 121.403L67.7669 107.627C67.7066 105.448 65.4167 104.059 63.4566 105.011L53.2412 109.977C51.281 110.929 50.9588 113.588 52.6346 114.982L63.2318 123.793Z" />
  <rect
     style="fill:#202020;fill-opacity:1"
     id="rect914"
     fill="black"
     transform="matrix(-0.899387 0.437153 0.437153 0.899387 21.5218 11.411)"
     height="99.47"
     width="17.7625" />
  <rect
     style="fill:#202020;fill-opacity:1"
     id="rect916"
     fill="black"
     transform="matrix(-0.899387 0.437153 0.437153 0.899387 15.9754 0)"
     height="9.135"
     width="17.7625" />
</svg>
