<svg width="183" height="203" viewBox="0 0 183 203" fill="none" xmlns="http://www.w3.org/2000/svg">
<path d="M108.745 92.1347C80.8775 97.3239 62.6656 123.08 67.551 149.317C72.4364 175.553 98.6984 193.028 126.566 187.839C154.434 182.65 172.646 156.894 167.76 130.657C162.875 104.421 136.613 86.9456 108.745 92.1347Z" stroke="black" stroke-width="10"/>
<ellipse cx="91.5749" cy="125.084" rx="9.25671" ry="9.34579" transform="rotate(-79.452 91.5749 125.084)" fill="black"/>
<ellipse cx="126.308" cy="122.538" rx="11.1736" ry="11.2811" transform="rotate(-79.452 126.308 122.538)" fill="black"/>
<ellipse cx="119.219" cy="164.795" rx="12.9135" ry="13.0378" transform="rotate(-79.452 119.219 164.795)" fill="black"/>
<rect x="80.6925" y="145.145" width="8.12" height="4.5675" fill="black"/>
<rect x="153.265" y="132.457" width="8.12" height="4.5675" fill="black"/>
<rect x="88.8125" y="150.727" width="8.12" height="4.5675" fill="black"/>
<rect x="155.295" y="142.607" width="8.12" height="4.5675" fill="black"/>
<rect x="76.6325" y="153.265" width="8.12" height="4.5675" fill="black"/>
<rect x="143.115" y="139.055" width="8.12" height="4.5675" fill="black"/>
<rect width="15.4388" height="28.8558" transform="matrix(0.866132 0.499816 0.499816 -0.866132 60.0001 125.993)" fill="#ECD8D8"/>
<path d="M63.2318 123.793C65.2164 125.443 68.2201 123.983 68.1486 121.403L67.7669 107.627C67.7066 105.448 65.4167 104.059 63.4566 105.011L53.2412 109.977C51.281 110.929 50.9588 113.588 52.6346 114.982L63.2318 123.793Z" fill="black"/>
<rect width="17.7625" height="99.47" transform="matrix(-0.899387 0.437153 0.437153 0.899387 21.5218 11.411)" fill="black"/>
<rect width="17.7625" height="9.135" transform="matrix(-0.899387 0.437153 0.437153 0.899387 15.9754 0)" fill="black"/>
</svg>
