<?xml version="1.0" encoding="UTF-8" standalone="no"?>
<!DOCTYPE svg PUBLIC "-//W3C//DTD SVG 1.1//EN" "http://www.w3.org/Graphics/SVG/1.1/DTD/svg11.dtd">
<svg width="100%" height="100%" viewBox="0 0 227 278" version="1.1" xmlns="http://www.w3.org/2000/svg" xmlns:xlink="http://www.w3.org/1999/xlink" xml:space="preserve" xmlns:serif="http://www.serif.com/" style="fill-rule:evenodd;clip-rule:evenodd;stroke-linecap:round;stroke-linejoin:round;stroke-miterlimit:18;">
    <rect id="Artboard2" x="-0" y="0" width="226.982" height="277.576" style="fill:none;"/>
    <path d="M211.646,63.217L211.646,214.359C211.646,241.446 189.655,263.437 162.569,263.437L64.413,263.437C37.327,263.437 15.336,241.446 15.336,214.359L15.336,63.217C15.336,36.131 37.327,14.14 64.413,14.14L162.569,14.14C189.655,14.14 211.646,36.131 211.646,63.217Z"/>
    <clipPath id="_clip1">
        <path d="M211.646,63.217L211.646,214.359C211.646,241.446 189.655,263.437 162.569,263.437L64.413,263.437C37.327,263.437 15.336,241.446 15.336,214.359L15.336,63.217C15.336,36.131 37.327,14.14 64.413,14.14L162.569,14.14C189.655,14.14 211.646,36.131 211.646,63.217Z"/>
    </clipPath>
    <g clip-path="url(#_clip1)">
        <g>
            <path id="path884" d="M130.607,100.793C119.303,106.339 109.357,119.391 109.357,138.875C109.357,165.376 127.756,179.979 142.948,179.979C142.98,179.979 143.013,179.976 143.046,179.975L137.766,232.842C92.954,229.919 56.32,189.374 56.32,138.875C56.32,86.443 95.811,44.734 142.948,44.734C147.527,44.734 152.033,45.132 156.438,45.891L152.102,89.306L126.915,75.616L130.607,100.793Z" style="fill:rgb(255,215,108);"/>
            <g>
                <path d="M136.54,89.085L170.662,107.632L142.176,127.511L136.54,89.085Z" style="fill:rgb(255,215,108);stroke:rgb(54,54,54);stroke-opacity:0;stroke-width:5.69px;"/>
                <path d="M149.995,111.935L153.568,109.442C154.554,108.754 155.912,108.996 156.6,109.982L168.593,127.174C169.281,128.16 169.039,129.518 168.053,130.206L164.48,132.699C163.494,133.386 162.135,133.144 161.447,132.158L149.455,114.967C148.767,113.981 149.009,112.622 149.995,111.935Z" style="fill:rgb(255,215,108);stroke:rgb(54,54,54);stroke-opacity:0;stroke-width:5.54px;"/>
            </g>
        </g>
    </g>
</svg>
