<?xml version="1.0" encoding="UTF-8" standalone="no"?>
<!DOCTYPE svg PUBLIC "-//W3C//DTD SVG 1.1//EN" "http://www.w3.org/Graphics/SVG/1.1/DTD/svg11.dtd">
<svg width="100%" height="100%" viewBox="0 0 1808 1549" version="1.1" xmlns="http://www.w3.org/2000/svg" xmlns:xlink="http://www.w3.org/1999/xlink" xml:space="preserve" xmlns:serif="http://www.serif.com/" style="fill-rule:evenodd;clip-rule:evenodd;stroke-linecap:round;stroke-linejoin:round;stroke-miterlimit:1.5;">
    <g id="Artboard1" transform="matrix(0.955266,0,0,0.832178,-4001.643581,-1230.912673)">
        <rect x="4189.038" y="1479.146" width="1892.532" height="1860.236" style="fill:none;"/>
        <g transform="matrix(1.194465,0,0,1.505847,4001.924852,1062.624253)">
            <rect x="394.201" y="486.495" width="1035.118" height="942.52" style="fill:rgb(235,235,235);stroke:black;stroke-width:17.38px;"/>
        </g>
        <g transform="matrix(0.733794,0,0,0.842329,4477.860106,1466.692062)">
            <g transform="matrix(1648.873645,0,0,1648.873645,355.714813,1520.669291)">
                <path d="M0.066,0.199L0.066,-0.519L0.146,-0.519L0.146,-0.451C0.165,-0.478 0.186,-0.497 0.21,-0.51C0.234,-0.524 0.263,-0.53 0.296,-0.53C0.341,-0.53 0.38,-0.519 0.414,-0.496C0.447,-0.473 0.473,-0.441 0.49,-0.4C0.507,-0.358 0.516,-0.313 0.516,-0.263C0.516,-0.21 0.507,-0.162 0.488,-0.12C0.469,-0.077 0.441,-0.045 0.405,-0.022C0.368,0 0.33,0.012 0.29,0.012C0.261,0.012 0.234,0.006 0.211,-0.007C0.188,-0.019 0.169,-0.035 0.154,-0.054L0.154,0.199L0.066,0.199ZM0.146,-0.256C0.146,-0.19 0.159,-0.14 0.186,-0.108C0.213,-0.076 0.246,-0.061 0.284,-0.061C0.323,-0.061 0.357,-0.077 0.385,-0.11C0.412,-0.143 0.426,-0.194 0.426,-0.264C0.426,-0.33 0.413,-0.379 0.385,-0.412C0.358,-0.445 0.326,-0.461 0.288,-0.461C0.251,-0.461 0.218,-0.444 0.189,-0.409C0.16,-0.374 0.146,-0.323 0.146,-0.256Z" style="fill:rgb(172,172,172);fill-rule:nonzero;"/>
            </g>
        </g>
        <g transform="matrix(1.046829,0,0,1.201666,-284.795881,-377.774044)">
            <g transform="matrix(1,0,0,1,4189.037894,1479.146161)">
                <path d="M300.356,339.567L186.571,339.567" style="fill:none;stroke:rgb(138,165,172);stroke-width:20.83px;"/>
            </g>
            <g transform="matrix(1,0,0,1,4189.037894,2660.248524)">
                <path d="M300.356,339.567L186.571,339.567" style="fill:none;stroke:rgb(138,165,172);stroke-width:20.83px;"/>
            </g>
            <g transform="matrix(1,0,0,1,4189.037894,1479.146161)">
                <path d="M243.464,339.567L243.464,1520.669" style="fill:none;stroke:rgb(138,165,172);stroke-width:20.83px;"/>
            </g>
        </g>
        <g transform="matrix(1.046829,0,0,0.830178,1173.379402,285.35555)">
            <g transform="matrix(1,0,0,1,4189.037894,1479.146161)">
                <path d="M300.356,339.567L186.571,339.567" style="fill:none;stroke:rgb(138,165,172);stroke-width:24.24px;"/>
            </g>
            <g transform="matrix(1,0,0,1,4189.037894,2660.248524)">
                <path d="M300.356,339.567L186.571,339.567" style="fill:none;stroke:rgb(138,165,172);stroke-width:24.24px;"/>
            </g>
            <g transform="matrix(1,0,0,1,4189.037894,1479.146161)">
                <path d="M243.464,339.567L243.464,1520.669" style="fill:none;stroke:rgb(138,165,172);stroke-width:24.24px;"/>
            </g>
        </g>
        <g transform="matrix(0,-1.201666,1.046829,0,2568.902361,6985.357814)">
            <g transform="matrix(1,0,0,1,4189.037894,1479.146161)">
                <path d="M300.356,339.567L186.571,339.567" style="fill:none;stroke:rgb(138,165,172);stroke-width:20.83px;"/>
            </g>
            <g transform="matrix(1,0,0,1,4189.037894,2660.248524)">
                <path d="M300.356,339.567L186.571,339.567" style="fill:none;stroke:rgb(138,165,172);stroke-width:20.83px;"/>
            </g>
            <g transform="matrix(1,0,0,1,4189.037894,1479.146161)">
                <path d="M243.464,339.567L243.464,1520.669" style="fill:none;stroke:rgb(138,165,172);stroke-width:20.83px;"/>
            </g>
        </g>
        <g transform="matrix(0,-1.201666,1.046829,0,3312.640135,2801.404015)">
            <g transform="matrix(83.333333,0,0,83.333333,105.029635,957.331641)">
                <path d="M0.049,-0L0.061,-0.159L0.072,-0.386L0.079,-0.667C0.108,-0.666 0.132,-0.666 0.15,-0.666C0.175,-0.666 0.199,-0.666 0.221,-0.667L0.212,-0.55C0.21,-0.522 0.208,-0.476 0.205,-0.412C0.215,-0.428 0.224,-0.439 0.231,-0.447C0.238,-0.455 0.246,-0.462 0.254,-0.469C0.263,-0.476 0.272,-0.481 0.281,-0.486C0.29,-0.49 0.301,-0.494 0.313,-0.498C0.325,-0.502 0.339,-0.504 0.354,-0.506C0.368,-0.508 0.384,-0.509 0.399,-0.509C0.426,-0.509 0.452,-0.506 0.477,-0.5C0.502,-0.494 0.524,-0.483 0.542,-0.469C0.56,-0.454 0.572,-0.437 0.579,-0.417C0.586,-0.398 0.589,-0.377 0.589,-0.355C0.589,-0.341 0.588,-0.32 0.586,-0.29L0.575,-0.077C0.574,-0.055 0.573,-0.029 0.573,-0C0.547,-0.001 0.524,-0.001 0.503,-0.001C0.482,-0.001 0.457,-0.001 0.429,-0C0.433,-0.038 0.438,-0.091 0.442,-0.157C0.447,-0.224 0.449,-0.271 0.449,-0.299C0.449,-0.325 0.445,-0.345 0.436,-0.359C0.428,-0.374 0.416,-0.384 0.4,-0.391C0.384,-0.398 0.366,-0.402 0.347,-0.402C0.322,-0.402 0.3,-0.397 0.281,-0.389C0.263,-0.38 0.248,-0.368 0.235,-0.351C0.225,-0.337 0.217,-0.317 0.21,-0.291C0.203,-0.263 0.198,-0.221 0.194,-0.164C0.193,-0.136 0.191,-0.081 0.189,-0C0.163,-0.001 0.141,-0.001 0.123,-0.001C0.105,-0.001 0.08,-0.001 0.049,-0Z" style="fill:rgb(138,165,172);fill-rule:nonzero;stroke:rgb(138,165,172);stroke-width:0.01px;stroke-linecap:butt;stroke-miterlimit:2;"/>
            </g>
            <g transform="matrix(83.333333,0,0,83.333333,158.618502,957.331641)">
                <path d="M0.492,-0.111C0.488,-0.092 0.482,-0.057 0.474,-0.007C0.439,0 0.409,0.005 0.385,0.008C0.361,0.01 0.337,0.012 0.312,0.012C0.27,0.012 0.232,0.007 0.198,-0.001C0.164,-0.009 0.135,-0.025 0.109,-0.048C0.084,-0.07 0.065,-0.098 0.053,-0.131C0.041,-0.164 0.035,-0.198 0.035,-0.234C0.035,-0.274 0.042,-0.313 0.056,-0.35C0.07,-0.388 0.09,-0.419 0.115,-0.443C0.14,-0.467 0.169,-0.484 0.201,-0.493C0.233,-0.503 0.267,-0.508 0.302,-0.508C0.335,-0.508 0.367,-0.504 0.397,-0.496C0.427,-0.488 0.452,-0.474 0.472,-0.455C0.493,-0.436 0.508,-0.414 0.519,-0.387C0.53,-0.361 0.536,-0.331 0.536,-0.299C0.536,-0.283 0.534,-0.268 0.531,-0.251L0.173,-0.251C0.172,-0.239 0.172,-0.229 0.172,-0.222C0.172,-0.2 0.176,-0.18 0.183,-0.162C0.191,-0.144 0.201,-0.128 0.216,-0.116C0.23,-0.103 0.247,-0.094 0.267,-0.088C0.287,-0.082 0.306,-0.079 0.326,-0.079C0.348,-0.079 0.372,-0.081 0.399,-0.086C0.425,-0.091 0.456,-0.099 0.492,-0.111ZM0.177,-0.308L0.405,-0.308C0.405,-0.323 0.405,-0.335 0.404,-0.342C0.403,-0.35 0.401,-0.358 0.397,-0.368C0.394,-0.377 0.389,-0.386 0.383,-0.393C0.377,-0.4 0.371,-0.406 0.363,-0.411C0.355,-0.416 0.346,-0.42 0.336,-0.422C0.325,-0.425 0.314,-0.426 0.303,-0.426C0.289,-0.426 0.276,-0.424 0.263,-0.42C0.25,-0.416 0.238,-0.41 0.228,-0.401C0.217,-0.393 0.208,-0.384 0.201,-0.374C0.195,-0.364 0.19,-0.355 0.187,-0.345C0.183,-0.336 0.18,-0.324 0.177,-0.308Z" style="fill:rgb(138,165,172);fill-rule:nonzero;stroke:rgb(138,165,172);stroke-width:0.01px;stroke-linecap:butt;stroke-miterlimit:2;"/>
            </g>
            <g transform="matrix(83.333333,0,0,83.333333,205.330742,957.331641)">
                <path d="M0.075,-0.582C0.076,-0.615 0.077,-0.641 0.077,-0.659L0.077,-0.674C0.107,-0.674 0.131,-0.673 0.149,-0.673C0.175,-0.673 0.198,-0.674 0.22,-0.674C0.219,-0.666 0.219,-0.657 0.218,-0.646L0.216,-0.582C0.191,-0.582 0.168,-0.583 0.147,-0.583C0.127,-0.583 0.103,-0.582 0.075,-0.582ZM0.049,-0C0.054,-0.049 0.057,-0.09 0.059,-0.123C0.062,-0.175 0.065,-0.235 0.068,-0.303C0.07,-0.371 0.072,-0.435 0.073,-0.497C0.105,-0.496 0.129,-0.496 0.145,-0.496C0.159,-0.496 0.183,-0.496 0.216,-0.497C0.211,-0.44 0.208,-0.386 0.205,-0.334C0.202,-0.283 0.2,-0.224 0.199,-0.158C0.197,-0.091 0.197,-0.039 0.197,-0C0.167,-0.001 0.143,-0.001 0.125,-0.001C0.109,-0.001 0.083,-0.001 0.049,-0Z" style="fill:rgb(138,165,172);fill-rule:nonzero;stroke:rgb(138,165,172);stroke-width:0.01px;stroke-linecap:butt;stroke-miterlimit:2;"/>
            </g>
            <g transform="matrix(83.333333,0,0,83.333333,227.547539,957.331641)">
                <path d="M0.084,0.103C0.157,0.127 0.221,0.139 0.274,0.139C0.295,0.139 0.314,0.137 0.333,0.132C0.351,0.127 0.366,0.119 0.378,0.11C0.391,0.1 0.4,0.087 0.407,0.071C0.414,0.054 0.419,0.035 0.421,0.014C0.423,-0.008 0.425,-0.041 0.426,-0.084C0.414,-0.067 0.402,-0.054 0.392,-0.044C0.382,-0.035 0.37,-0.026 0.356,-0.018C0.342,-0.011 0.325,-0.004 0.306,0C0.287,0.005 0.267,0.007 0.247,0.007C0.218,0.007 0.191,0.003 0.165,-0.006C0.139,-0.015 0.116,-0.029 0.096,-0.048C0.076,-0.068 0.061,-0.092 0.051,-0.121C0.04,-0.15 0.035,-0.18 0.035,-0.212C0.035,-0.257 0.044,-0.3 0.061,-0.34C0.078,-0.381 0.103,-0.414 0.136,-0.44C0.169,-0.466 0.204,-0.484 0.242,-0.494C0.28,-0.503 0.321,-0.508 0.367,-0.508C0.393,-0.508 0.421,-0.507 0.454,-0.504C0.486,-0.501 0.528,-0.494 0.582,-0.485L0.57,-0.33L0.56,-0.136L0.556,0.039C0.555,0.059 0.553,0.078 0.549,0.096C0.545,0.114 0.539,0.131 0.53,0.146C0.522,0.161 0.511,0.174 0.498,0.185C0.485,0.196 0.47,0.206 0.454,0.213C0.437,0.22 0.417,0.225 0.393,0.23C0.369,0.235 0.343,0.237 0.315,0.237C0.285,0.237 0.252,0.235 0.214,0.231C0.176,0.227 0.135,0.22 0.09,0.209L0.084,0.103ZM0.44,-0.399C0.412,-0.405 0.386,-0.408 0.362,-0.408C0.319,-0.408 0.285,-0.4 0.257,-0.384C0.229,-0.369 0.208,-0.346 0.193,-0.317C0.178,-0.287 0.17,-0.256 0.17,-0.222C0.17,-0.198 0.175,-0.175 0.184,-0.154C0.193,-0.133 0.207,-0.117 0.227,-0.106C0.246,-0.096 0.268,-0.09 0.291,-0.09C0.308,-0.09 0.323,-0.093 0.338,-0.098C0.352,-0.103 0.365,-0.111 0.377,-0.122C0.389,-0.133 0.399,-0.146 0.408,-0.162C0.417,-0.178 0.423,-0.196 0.427,-0.216C0.431,-0.236 0.434,-0.261 0.436,-0.292C0.438,-0.322 0.439,-0.358 0.44,-0.399Z" style="fill:rgb(138,165,172);fill-rule:nonzero;stroke:rgb(138,165,172);stroke-width:0.01px;stroke-linecap:butt;stroke-miterlimit:2;"/>
            </g>
            <g transform="matrix(83.333333,0,0,83.333333,280.078463,957.331641)">
                <path d="M0.049,-0L0.061,-0.159L0.072,-0.386L0.079,-0.667C0.108,-0.666 0.132,-0.666 0.15,-0.666C0.175,-0.666 0.199,-0.666 0.221,-0.667L0.212,-0.55C0.21,-0.522 0.208,-0.476 0.205,-0.412C0.215,-0.428 0.224,-0.439 0.231,-0.447C0.238,-0.455 0.246,-0.462 0.254,-0.469C0.263,-0.476 0.272,-0.481 0.281,-0.486C0.29,-0.49 0.301,-0.494 0.313,-0.498C0.325,-0.502 0.339,-0.504 0.354,-0.506C0.368,-0.508 0.384,-0.509 0.399,-0.509C0.426,-0.509 0.452,-0.506 0.477,-0.5C0.502,-0.494 0.524,-0.483 0.542,-0.469C0.56,-0.454 0.572,-0.437 0.579,-0.417C0.586,-0.398 0.589,-0.377 0.589,-0.355C0.589,-0.341 0.588,-0.32 0.586,-0.29L0.575,-0.077C0.574,-0.055 0.573,-0.029 0.573,-0C0.547,-0.001 0.524,-0.001 0.503,-0.001C0.482,-0.001 0.457,-0.001 0.429,-0C0.433,-0.038 0.438,-0.091 0.442,-0.157C0.447,-0.224 0.449,-0.271 0.449,-0.299C0.449,-0.325 0.445,-0.345 0.436,-0.359C0.428,-0.374 0.416,-0.384 0.4,-0.391C0.384,-0.398 0.366,-0.402 0.347,-0.402C0.322,-0.402 0.3,-0.397 0.281,-0.389C0.263,-0.38 0.248,-0.368 0.235,-0.351C0.225,-0.337 0.217,-0.317 0.21,-0.291C0.203,-0.263 0.198,-0.221 0.194,-0.164C0.193,-0.136 0.191,-0.081 0.189,-0C0.163,-0.001 0.141,-0.001 0.123,-0.001C0.105,-0.001 0.08,-0.001 0.049,-0Z" style="fill:rgb(138,165,172);fill-rule:nonzero;stroke:rgb(138,165,172);stroke-width:0.01px;stroke-linecap:butt;stroke-miterlimit:2;"/>
            </g>
            <g transform="matrix(83.333333,0,0,83.333333,333.667331,957.331641)">
                <path d="M0.354,-0.102C0.35,-0.084 0.343,-0.051 0.335,-0.002C0.308,0.004 0.286,0.008 0.271,0.009C0.255,0.011 0.24,0.012 0.227,0.012C0.202,0.012 0.181,0.009 0.162,0.005C0.143,0 0.127,-0.008 0.115,-0.019C0.102,-0.031 0.094,-0.044 0.09,-0.06C0.085,-0.075 0.083,-0.091 0.083,-0.108C0.083,-0.112 0.083,-0.118 0.083,-0.125C0.084,-0.132 0.085,-0.155 0.087,-0.194L0.099,-0.397L0.028,-0.397C0.03,-0.417 0.031,-0.448 0.033,-0.492L0.106,-0.492C0.108,-0.511 0.11,-0.543 0.112,-0.588L0.17,-0.599C0.182,-0.601 0.205,-0.607 0.24,-0.615C0.237,-0.571 0.236,-0.53 0.236,-0.492L0.36,-0.492C0.358,-0.448 0.356,-0.416 0.356,-0.397L0.232,-0.397C0.225,-0.265 0.222,-0.188 0.222,-0.167C0.222,-0.147 0.224,-0.132 0.228,-0.121C0.233,-0.11 0.24,-0.102 0.25,-0.097C0.259,-0.092 0.27,-0.089 0.281,-0.089C0.289,-0.089 0.297,-0.09 0.306,-0.091C0.315,-0.093 0.331,-0.096 0.354,-0.102Z" style="fill:rgb(138,165,172);fill-rule:nonzero;stroke:rgb(138,165,172);stroke-width:0.01px;stroke-linecap:butt;stroke-miterlimit:2;"/>
            </g>
        </g>
        <g transform="matrix(1.046829,0,0,1.201666,4861.924195,473.387432)">
            <g transform="matrix(83.333333,0,0,83.333333,105.029635,957.331641)">
                <path d="M0.179,-0L0.122,-0.173L0.04,-0.412L0.009,-0.497C0.034,-0.496 0.057,-0.496 0.078,-0.496C0.097,-0.496 0.118,-0.496 0.14,-0.497L0.253,-0.131L0.382,-0.497C0.407,-0.496 0.43,-0.496 0.452,-0.496C0.476,-0.496 0.498,-0.496 0.519,-0.497L0.603,-0.174C0.604,-0.169 0.607,-0.155 0.613,-0.131L0.625,-0.163C0.625,-0.164 0.628,-0.171 0.634,-0.186L0.709,-0.378L0.754,-0.497C0.779,-0.496 0.8,-0.496 0.818,-0.496C0.833,-0.496 0.855,-0.496 0.885,-0.497L0.75,-0.19C0.722,-0.124 0.695,-0.061 0.67,-0C0.643,-0.001 0.621,-0.001 0.605,-0.001C0.589,-0.001 0.564,-0.001 0.531,-0L0.442,-0.355C0.437,-0.343 0.427,-0.316 0.413,-0.274L0.313,-0C0.286,-0.001 0.265,-0.001 0.25,-0.001C0.235,-0.001 0.211,-0.001 0.179,-0Z" style="fill:rgb(138,165,172);fill-rule:nonzero;stroke:rgb(138,165,172);stroke-width:0.01px;stroke-linecap:butt;stroke-miterlimit:2;"/>
            </g>
            <g transform="matrix(83.333333,0,0,83.333333,177.498711,957.331641)">
                <path d="M0.075,-0.582C0.076,-0.615 0.077,-0.641 0.077,-0.659L0.077,-0.674C0.107,-0.674 0.131,-0.673 0.149,-0.673C0.175,-0.673 0.198,-0.674 0.22,-0.674C0.219,-0.666 0.219,-0.657 0.218,-0.646L0.216,-0.582C0.191,-0.582 0.168,-0.583 0.147,-0.583C0.127,-0.583 0.103,-0.582 0.075,-0.582ZM0.049,-0C0.054,-0.049 0.057,-0.09 0.059,-0.123C0.062,-0.175 0.065,-0.235 0.068,-0.303C0.07,-0.371 0.072,-0.435 0.073,-0.497C0.105,-0.496 0.129,-0.496 0.145,-0.496C0.159,-0.496 0.183,-0.496 0.216,-0.497C0.211,-0.44 0.208,-0.386 0.205,-0.334C0.202,-0.283 0.2,-0.224 0.199,-0.158C0.197,-0.091 0.197,-0.039 0.197,-0C0.167,-0.001 0.143,-0.001 0.125,-0.001C0.109,-0.001 0.083,-0.001 0.049,-0Z" style="fill:rgb(138,165,172);fill-rule:nonzero;stroke:rgb(138,165,172);stroke-width:0.01px;stroke-linecap:butt;stroke-miterlimit:2;"/>
            </g>
            <g transform="matrix(83.333333,0,0,83.333333,199.715508,957.331641)">
                <path d="M0.554,-0C0.527,-0.001 0.506,-0.001 0.491,-0.001C0.474,-0.001 0.452,-0.001 0.423,-0L0.428,-0.085C0.413,-0.066 0.401,-0.052 0.391,-0.042C0.381,-0.032 0.368,-0.023 0.353,-0.014C0.338,-0.005 0.321,0.001 0.304,0.005C0.286,0.01 0.268,0.012 0.249,0.012C0.218,0.012 0.188,0.006 0.161,-0.005C0.134,-0.017 0.111,-0.033 0.091,-0.053C0.072,-0.074 0.058,-0.099 0.049,-0.127C0.04,-0.156 0.035,-0.185 0.035,-0.216C0.035,-0.259 0.043,-0.301 0.06,-0.341C0.076,-0.382 0.098,-0.414 0.126,-0.439C0.155,-0.465 0.187,-0.482 0.223,-0.493C0.258,-0.503 0.297,-0.508 0.338,-0.508C0.368,-0.508 0.401,-0.506 0.438,-0.5C0.441,-0.542 0.442,-0.587 0.442,-0.633L0.442,-0.667C0.472,-0.666 0.496,-0.666 0.512,-0.666C0.533,-0.666 0.557,-0.666 0.583,-0.667C0.576,-0.584 0.57,-0.471 0.563,-0.329C0.557,-0.186 0.554,-0.077 0.554,-0ZM0.433,-0.407C0.409,-0.414 0.385,-0.417 0.363,-0.417C0.337,-0.417 0.312,-0.413 0.289,-0.406C0.266,-0.399 0.245,-0.387 0.227,-0.37C0.209,-0.352 0.195,-0.33 0.185,-0.303C0.175,-0.276 0.17,-0.25 0.17,-0.225C0.17,-0.2 0.175,-0.177 0.184,-0.156C0.193,-0.135 0.207,-0.119 0.226,-0.107C0.244,-0.095 0.266,-0.089 0.29,-0.089C0.307,-0.089 0.324,-0.092 0.338,-0.098C0.353,-0.105 0.366,-0.115 0.378,-0.128C0.39,-0.141 0.401,-0.158 0.409,-0.179C0.417,-0.2 0.423,-0.227 0.427,-0.262C0.429,-0.287 0.431,-0.336 0.433,-0.407Z" style="fill:rgb(138,165,172);fill-rule:nonzero;stroke:rgb(138,165,172);stroke-width:0.01px;stroke-linecap:butt;stroke-miterlimit:2;"/>
            </g>
            <g transform="matrix(83.333333,0,0,83.333333,251.839531,957.331641)">
                <path d="M0.354,-0.102C0.35,-0.084 0.343,-0.051 0.335,-0.002C0.308,0.004 0.286,0.008 0.271,0.009C0.255,0.011 0.24,0.012 0.227,0.012C0.202,0.012 0.181,0.009 0.162,0.005C0.143,0 0.127,-0.008 0.115,-0.019C0.102,-0.031 0.094,-0.044 0.09,-0.06C0.085,-0.075 0.083,-0.091 0.083,-0.108C0.083,-0.112 0.083,-0.118 0.083,-0.125C0.084,-0.132 0.085,-0.155 0.087,-0.194L0.099,-0.397L0.028,-0.397C0.03,-0.417 0.031,-0.448 0.033,-0.492L0.106,-0.492C0.108,-0.511 0.11,-0.543 0.112,-0.588L0.17,-0.599C0.182,-0.601 0.205,-0.607 0.24,-0.615C0.237,-0.571 0.236,-0.53 0.236,-0.492L0.36,-0.492C0.358,-0.448 0.356,-0.416 0.356,-0.397L0.232,-0.397C0.225,-0.265 0.222,-0.188 0.222,-0.167C0.222,-0.147 0.224,-0.132 0.228,-0.121C0.233,-0.11 0.24,-0.102 0.25,-0.097C0.259,-0.092 0.27,-0.089 0.281,-0.089C0.289,-0.089 0.297,-0.09 0.306,-0.091C0.315,-0.093 0.331,-0.096 0.354,-0.102Z" style="fill:rgb(138,165,172);fill-rule:nonzero;stroke:rgb(138,165,172);stroke-width:0.01px;stroke-linecap:butt;stroke-miterlimit:2;"/>
            </g>
            <g transform="matrix(83.333333,0,0,83.333333,282.8047,957.331641)">
                <path d="M0.049,-0L0.061,-0.159L0.072,-0.386L0.079,-0.667C0.108,-0.666 0.132,-0.666 0.15,-0.666C0.175,-0.666 0.199,-0.666 0.221,-0.667L0.212,-0.55C0.21,-0.522 0.208,-0.476 0.205,-0.412C0.215,-0.428 0.224,-0.439 0.231,-0.447C0.238,-0.455 0.246,-0.462 0.254,-0.469C0.263,-0.476 0.272,-0.481 0.281,-0.486C0.29,-0.49 0.301,-0.494 0.313,-0.498C0.325,-0.502 0.339,-0.504 0.354,-0.506C0.368,-0.508 0.384,-0.509 0.399,-0.509C0.426,-0.509 0.452,-0.506 0.477,-0.5C0.502,-0.494 0.524,-0.483 0.542,-0.469C0.56,-0.454 0.572,-0.437 0.579,-0.417C0.586,-0.398 0.589,-0.377 0.589,-0.355C0.589,-0.341 0.588,-0.32 0.586,-0.29L0.575,-0.077C0.574,-0.055 0.573,-0.029 0.573,-0C0.547,-0.001 0.524,-0.001 0.503,-0.001C0.482,-0.001 0.457,-0.001 0.429,-0C0.433,-0.038 0.438,-0.091 0.442,-0.157C0.447,-0.224 0.449,-0.271 0.449,-0.299C0.449,-0.325 0.445,-0.345 0.436,-0.359C0.428,-0.374 0.416,-0.384 0.4,-0.391C0.384,-0.398 0.366,-0.402 0.347,-0.402C0.322,-0.402 0.3,-0.397 0.281,-0.389C0.263,-0.38 0.248,-0.368 0.235,-0.351C0.225,-0.337 0.217,-0.317 0.21,-0.291C0.203,-0.263 0.198,-0.221 0.194,-0.164C0.193,-0.136 0.191,-0.081 0.189,-0C0.163,-0.001 0.141,-0.001 0.123,-0.001C0.105,-0.001 0.08,-0.001 0.049,-0Z" style="fill:rgb(138,165,172);fill-rule:nonzero;stroke:rgb(138,165,172);stroke-width:0.01px;stroke-linecap:butt;stroke-miterlimit:2;"/>
            </g>
        </g>
        <g transform="matrix(1.046829,0,0,1.201666,4100.411877,1387.164746)">
            <path d="M355.715,1155.538L1536.817,1155.538" style="fill:none;stroke:black;stroke-width:20.83px;"/>
        </g>
        <g transform="matrix(1.046829,0,0,1.201666,5733.940441,1201.823205)">
            <g transform="matrix(83.333333,0,0,83.333333,105.029635,957.331641)">
                <path d="M0.049,-0C0.055,-0.062 0.062,-0.169 0.069,-0.323C0.076,-0.476 0.079,-0.59 0.08,-0.667C0.109,-0.666 0.134,-0.666 0.155,-0.666C0.176,-0.666 0.199,-0.666 0.223,-0.667C0.217,-0.621 0.213,-0.563 0.209,-0.493C0.241,-0.499 0.267,-0.503 0.286,-0.505C0.305,-0.507 0.323,-0.508 0.342,-0.508C0.393,-0.508 0.436,-0.5 0.471,-0.484C0.506,-0.468 0.534,-0.441 0.555,-0.404C0.576,-0.367 0.587,-0.322 0.587,-0.269C0.587,-0.231 0.582,-0.195 0.571,-0.16C0.56,-0.125 0.545,-0.094 0.524,-0.067C0.503,-0.04 0.477,-0.02 0.447,-0.007C0.417,0.005 0.385,0.012 0.35,0.012C0.333,0.012 0.317,0.01 0.302,0.007C0.288,0.004 0.275,-0 0.262,-0.006C0.25,-0.012 0.239,-0.019 0.23,-0.027C0.22,-0.035 0.212,-0.042 0.206,-0.05C0.199,-0.058 0.192,-0.069 0.184,-0.083L0.182,-0C0.155,-0.001 0.134,-0.001 0.119,-0.001C0.107,-0.001 0.084,-0.001 0.049,-0ZM0.2,-0.393L0.196,-0.31C0.195,-0.292 0.195,-0.274 0.195,-0.257C0.195,-0.217 0.199,-0.185 0.207,-0.162C0.216,-0.139 0.23,-0.121 0.25,-0.108C0.269,-0.095 0.292,-0.089 0.316,-0.089C0.343,-0.089 0.367,-0.096 0.387,-0.111C0.407,-0.125 0.422,-0.146 0.432,-0.174C0.443,-0.202 0.448,-0.232 0.448,-0.263C0.448,-0.307 0.436,-0.343 0.413,-0.37C0.389,-0.397 0.354,-0.411 0.308,-0.411C0.293,-0.411 0.277,-0.409 0.261,-0.407C0.244,-0.405 0.224,-0.4 0.2,-0.393Z" style="fill:rgb(138,165,172);fill-rule:nonzero;stroke:rgb(138,165,172);stroke-width:0.01px;stroke-linecap:butt;stroke-miterlimit:2;"/>
            </g>
            <g transform="matrix(83.333333,0,0,83.333333,156.868828,957.331641)">
                <path d="M0.086,-0.388C0.091,-0.411 0.094,-0.428 0.095,-0.437C0.096,-0.446 0.098,-0.461 0.101,-0.48C0.145,-0.49 0.184,-0.498 0.218,-0.502C0.252,-0.506 0.285,-0.508 0.316,-0.508C0.352,-0.508 0.385,-0.504 0.415,-0.496C0.445,-0.488 0.468,-0.474 0.485,-0.456C0.502,-0.438 0.511,-0.412 0.511,-0.377C0.511,-0.359 0.508,-0.312 0.503,-0.236C0.498,-0.16 0.495,-0.081 0.494,-0C0.469,-0.001 0.446,-0.001 0.425,-0.001C0.405,-0.001 0.382,-0.001 0.355,-0C0.36,-0.039 0.363,-0.085 0.366,-0.137L0.372,-0.258C0.36,-0.25 0.35,-0.244 0.344,-0.241C0.337,-0.238 0.33,-0.235 0.322,-0.232C0.314,-0.229 0.299,-0.225 0.279,-0.219C0.258,-0.214 0.242,-0.209 0.229,-0.205C0.217,-0.2 0.206,-0.196 0.196,-0.19C0.186,-0.185 0.178,-0.179 0.171,-0.172C0.164,-0.165 0.159,-0.158 0.156,-0.151C0.153,-0.144 0.151,-0.136 0.151,-0.127C0.151,-0.114 0.155,-0.102 0.163,-0.092C0.171,-0.082 0.181,-0.075 0.193,-0.071C0.205,-0.067 0.22,-0.065 0.236,-0.065C0.246,-0.065 0.257,-0.066 0.269,-0.068C0.28,-0.069 0.296,-0.074 0.315,-0.08C0.309,-0.062 0.301,-0.034 0.292,0.003C0.268,0.007 0.25,0.009 0.236,0.01C0.223,0.011 0.21,0.012 0.198,0.012C0.157,0.012 0.124,0.006 0.097,-0.005C0.071,-0.016 0.051,-0.034 0.039,-0.058C0.026,-0.082 0.02,-0.106 0.02,-0.13C0.02,-0.144 0.022,-0.158 0.027,-0.172C0.032,-0.186 0.039,-0.198 0.049,-0.209C0.058,-0.221 0.07,-0.232 0.085,-0.242C0.1,-0.253 0.122,-0.263 0.15,-0.273C0.179,-0.283 0.216,-0.293 0.263,-0.303C0.275,-0.306 0.288,-0.309 0.301,-0.313C0.315,-0.316 0.325,-0.32 0.333,-0.324C0.341,-0.327 0.348,-0.332 0.354,-0.338C0.36,-0.343 0.364,-0.349 0.367,-0.355C0.37,-0.362 0.371,-0.368 0.371,-0.375C0.371,-0.387 0.367,-0.398 0.359,-0.407C0.35,-0.416 0.34,-0.422 0.326,-0.425C0.313,-0.428 0.299,-0.43 0.283,-0.43C0.223,-0.43 0.158,-0.416 0.086,-0.388Z" style="fill:rgb(138,165,172);fill-rule:nonzero;stroke:rgb(138,165,172);stroke-width:0.01px;stroke-linecap:butt;stroke-miterlimit:2;"/>
            </g>
            <g transform="matrix(83.333333,0,0,83.333333,204.110039,957.331641)">
                <path d="M0.036,-0.009L0.025,-0.117C0.057,-0.104 0.084,-0.095 0.106,-0.09C0.128,-0.085 0.148,-0.082 0.167,-0.082C0.186,-0.082 0.201,-0.084 0.214,-0.089C0.227,-0.093 0.236,-0.1 0.242,-0.108C0.248,-0.117 0.251,-0.126 0.251,-0.135C0.251,-0.139 0.251,-0.143 0.25,-0.147C0.249,-0.151 0.248,-0.154 0.246,-0.158C0.244,-0.162 0.241,-0.166 0.239,-0.169C0.236,-0.173 0.232,-0.177 0.227,-0.181C0.222,-0.185 0.215,-0.191 0.206,-0.198L0.18,-0.219C0.154,-0.239 0.135,-0.254 0.122,-0.266C0.108,-0.277 0.097,-0.289 0.088,-0.301C0.079,-0.312 0.072,-0.325 0.067,-0.338C0.062,-0.351 0.06,-0.365 0.06,-0.378C0.06,-0.402 0.067,-0.425 0.082,-0.446C0.096,-0.468 0.117,-0.483 0.145,-0.493C0.173,-0.503 0.205,-0.508 0.243,-0.508C0.285,-0.508 0.334,-0.503 0.39,-0.493L0.396,-0.391C0.359,-0.406 0.322,-0.414 0.288,-0.414C0.269,-0.414 0.252,-0.412 0.238,-0.408C0.224,-0.405 0.214,-0.399 0.208,-0.391C0.201,-0.384 0.198,-0.375 0.198,-0.366C0.198,-0.36 0.199,-0.355 0.201,-0.349C0.203,-0.344 0.207,-0.338 0.211,-0.333C0.216,-0.327 0.222,-0.321 0.228,-0.316C0.235,-0.311 0.248,-0.3 0.268,-0.285C0.288,-0.27 0.306,-0.256 0.321,-0.244C0.336,-0.231 0.349,-0.219 0.358,-0.206C0.368,-0.194 0.376,-0.18 0.381,-0.166C0.386,-0.152 0.389,-0.137 0.389,-0.123C0.389,-0.098 0.381,-0.076 0.366,-0.055C0.351,-0.034 0.329,-0.018 0.298,-0.006C0.268,0.006 0.234,0.012 0.197,0.012C0.177,0.012 0.153,0.01 0.125,0.007C0.097,0.004 0.068,-0.001 0.036,-0.009Z" style="fill:rgb(138,165,172);fill-rule:nonzero;stroke:rgb(138,165,172);stroke-width:0.01px;stroke-linecap:butt;stroke-miterlimit:2;"/>
            </g>
            <g transform="matrix(83.333333,0,0,83.333333,240.649752,957.331641)">
                <path d="M0.492,-0.111C0.488,-0.092 0.482,-0.057 0.474,-0.007C0.439,0 0.409,0.005 0.385,0.008C0.361,0.01 0.337,0.012 0.312,0.012C0.27,0.012 0.232,0.007 0.198,-0.001C0.164,-0.009 0.135,-0.025 0.109,-0.048C0.084,-0.07 0.065,-0.098 0.053,-0.131C0.041,-0.164 0.035,-0.198 0.035,-0.234C0.035,-0.274 0.042,-0.313 0.056,-0.35C0.07,-0.388 0.09,-0.419 0.115,-0.443C0.14,-0.467 0.169,-0.484 0.201,-0.493C0.233,-0.503 0.267,-0.508 0.302,-0.508C0.335,-0.508 0.367,-0.504 0.397,-0.496C0.427,-0.488 0.452,-0.474 0.472,-0.455C0.493,-0.436 0.508,-0.414 0.519,-0.387C0.53,-0.361 0.536,-0.331 0.536,-0.299C0.536,-0.283 0.534,-0.268 0.531,-0.251L0.173,-0.251C0.172,-0.239 0.172,-0.229 0.172,-0.222C0.172,-0.2 0.176,-0.18 0.183,-0.162C0.191,-0.144 0.201,-0.128 0.216,-0.116C0.23,-0.103 0.247,-0.094 0.267,-0.088C0.287,-0.082 0.306,-0.079 0.326,-0.079C0.348,-0.079 0.372,-0.081 0.399,-0.086C0.425,-0.091 0.456,-0.099 0.492,-0.111ZM0.177,-0.308L0.405,-0.308C0.405,-0.323 0.405,-0.335 0.404,-0.342C0.403,-0.35 0.401,-0.358 0.397,-0.368C0.394,-0.377 0.389,-0.386 0.383,-0.393C0.377,-0.4 0.371,-0.406 0.363,-0.411C0.355,-0.416 0.346,-0.42 0.336,-0.422C0.325,-0.425 0.314,-0.426 0.303,-0.426C0.289,-0.426 0.276,-0.424 0.263,-0.42C0.25,-0.416 0.238,-0.41 0.228,-0.401C0.217,-0.393 0.208,-0.384 0.201,-0.374C0.195,-0.364 0.19,-0.355 0.187,-0.345C0.183,-0.336 0.18,-0.324 0.177,-0.308Z" style="fill:rgb(138,165,172);fill-rule:nonzero;stroke:rgb(138,165,172);stroke-width:0.01px;stroke-linecap:butt;stroke-miterlimit:2;"/>
            </g>
        </g>
    </g>
</svg>
