<?xml version="1.0" encoding="UTF-8" standalone="no"?>
<!DOCTYPE svg PUBLIC "-//W3C//DTD SVG 1.1//EN" "http://www.w3.org/Graphics/SVG/1.1/DTD/svg11.dtd">
<svg width="100%" height="100%" viewBox="0 0 1809 1549" version="1.1" xmlns="http://www.w3.org/2000/svg" xmlns:xlink="http://www.w3.org/1999/xlink" xml:space="preserve" xmlns:serif="http://www.serif.com/" style="fill-rule:evenodd;clip-rule:evenodd;stroke-linecap:round;stroke-linejoin:round;stroke-miterlimit:1.5;">
    <rect id="Spacing" x="0" y="0" width="1808.268" height="1548.425" style="fill:none;"/>
    <clipPath id="_clip1">
        <rect x="0" y="0" width="1808.268" height="1548.425"/>
    </clipPath>
    <g clip-path="url(#_clip1)">
        <g>
            <rect x="271.053" y="263.022" width="1181.102" height="1181.102" style="fill:rgb(235,235,235);stroke:black;stroke-width:20.83px;"/>
            <path d="M601.435,1285.27L601.435,456.227L693.99,456.227L693.99,534.108C715.812,503.633 740.456,480.777 767.921,465.539C795.386,450.301 828.684,442.682 867.813,442.682C918.981,442.682 964.13,455.851 1003.259,482.187C1042.388,508.524 1071.922,545.678 1091.863,593.648C1111.804,641.619 1121.774,694.198 1121.774,751.387C1121.774,812.714 1110.769,867.927 1088.759,917.026C1066.749,966.125 1034.769,1003.749 992.818,1029.898C950.867,1056.047 906.753,1069.121 860.476,1069.121C826.614,1069.121 796.233,1061.972 769.332,1047.675C742.431,1033.378 720.327,1015.319 703.02,993.497L703.02,1285.27L601.435,1285.27ZM693.426,759.288C693.426,836.417 709.04,893.417 740.267,930.289C771.495,967.16 809.307,985.596 853.704,985.596C898.852,985.596 937.511,966.502 969.679,928.313C1001.848,890.125 1017.932,830.961 1017.932,750.822C1017.932,674.446 1002.224,617.257 970.808,579.257C939.392,541.257 901.862,522.257 858.218,522.257C814.951,522.257 776.669,542.48 743.371,582.926C710.074,623.371 693.426,682.159 693.426,759.288Z" style="fill:rgb(172,172,172);fill-rule:nonzero;"/>
        </g>
        <g>
            <rect x="271.053" y="263.022" width="1181.102" height="1181.102" style="fill:rgb(235,235,235);stroke:black;stroke-width:20.83px;"/>
            <path d="M601.435,1285.27L601.435,456.227L693.99,456.227L693.99,534.108C715.812,503.633 740.456,480.777 767.921,465.539C795.386,450.301 828.684,442.682 867.813,442.682C918.981,442.682 964.13,455.851 1003.259,482.187C1042.388,508.524 1071.922,545.678 1091.863,593.648C1111.804,641.619 1121.774,694.198 1121.774,751.387C1121.774,812.714 1110.769,867.927 1088.759,917.026C1066.749,966.125 1034.769,1003.749 992.818,1029.898C950.867,1056.047 906.753,1069.121 860.476,1069.121C826.614,1069.121 796.233,1061.972 769.332,1047.675C742.431,1033.378 720.327,1015.319 703.02,993.497L703.02,1285.27L601.435,1285.27ZM693.426,759.288C693.426,836.417 709.04,893.417 740.267,930.289C771.495,967.16 809.307,985.596 853.704,985.596C898.852,985.596 937.511,966.502 969.679,928.313C1001.848,890.125 1017.932,830.961 1017.932,750.822C1017.932,674.446 1002.224,617.257 970.808,579.257C939.392,541.257 901.862,522.257 858.218,522.257C814.951,522.257 776.669,542.48 743.371,582.926C710.074,623.371 693.426,682.159 693.426,759.288Z" style="fill:rgb(172,172,172);fill-rule:nonzero;"/>
        </g>
        <g>
            <rect x="271.053" y="263.022" width="1181.102" height="1181.102" style="fill:rgb(235,235,235);stroke:black;stroke-width:20.83px;"/>
            <path d="M992.536,981.645C954.912,1013.626 918.699,1036.2 883.897,1049.368C849.095,1062.537 811.753,1069.121 771.872,1069.121C706.03,1069.121 655.425,1053.037 620.059,1020.868C584.692,988.7 567.009,947.596 567.009,897.556C567.009,868.209 573.687,841.402 587.044,817.135C600.4,792.867 617.896,773.397 639.529,758.723C661.163,744.05 685.525,732.951 712.614,725.426C732.554,720.159 762.654,715.08 802.911,710.189C884.931,700.406 945.318,688.743 984.071,675.198C984.447,661.277 984.635,652.436 984.635,648.673C984.635,607.287 975.041,578.129 955.853,561.198C929.892,538.247 891.328,526.772 840.159,526.772C792.377,526.772 757.104,535.143 734.342,551.886C711.579,568.628 694.742,598.257 683.831,640.772L584.504,627.228C593.534,584.713 608.395,550.381 629.089,524.232C649.782,498.084 679.693,477.955 718.822,463.846C757.951,449.737 803.288,442.682 854.832,442.682C906.001,442.682 947.575,448.702 979.556,460.742C1011.536,472.781 1035.051,487.925 1050.101,506.173C1065.15,524.42 1075.685,547.465 1081.705,575.307C1085.091,592.614 1086.784,623.842 1086.784,668.99L1086.784,804.437C1086.784,898.873 1088.947,958.601 1093.274,983.621C1097.601,1008.64 1106.16,1032.626 1118.952,1055.576L1012.853,1055.576C1002.318,1034.507 995.546,1009.863 992.536,981.645ZM984.071,754.773C947.199,769.822 891.892,782.615 818.149,793.149C776.386,799.169 746.852,805.941 729.545,813.466C712.238,820.991 698.881,831.996 689.475,846.481C680.069,860.966 675.366,877.051 675.366,894.734C675.366,921.823 685.619,944.398 706.124,962.457C726.629,980.517 756.634,989.546 796.139,989.546C835.268,989.546 870.07,980.987 900.545,963.868C931.021,946.749 953.407,923.328 967.704,893.605C978.615,870.655 984.071,836.793 984.071,792.021L984.071,754.773Z" style="fill:rgb(172,172,172);fill-rule:nonzero;"/>
        </g>
        <g>
            <rect x="1639.558" y="263.022" width="1181.102" height="1181.102" style="fill:rgb(235,235,235);stroke:black;stroke-width:20.83px;"/>
        </g>
        <g>
            <rect x="271.053" y="1495.616" width="1181.102" height="1181.102" style="fill:rgb(235,235,235);stroke:black;stroke-width:20.83px;"/>
        </g>
        <g>
            <path d="M217.674,273.425L99.931,273.425" style="fill:none;stroke:rgb(138,165,172);stroke-width:20.83px;"/>
            <path d="M217.674,1495.616L99.931,1495.616" style="fill:none;stroke:rgb(138,165,172);stroke-width:20.83px;"/>
            <path d="M158.802,273.425L158.802,1495.616" style="fill:none;stroke:rgb(138,165,172);stroke-width:20.83px;"/>
        </g>
        <g>
            <path d="M1452.156,197.02L1452.156,215.074" style="fill:none;stroke:rgb(138,165,172);stroke-width:20.83px;"/>
            <path d="M1639.558,197.02L1639.558,215.074" style="fill:none;stroke:rgb(138,165,172);stroke-width:20.83px;"/>
            <path d="M1452.156,206.047L1639.558,206.047" style="fill:none;stroke:rgb(138,165,172);stroke-width:20.83px;"/>
        </g>
        <path d="M118.16,1094.38C113.575,1093.973 105.336,1093.478 93.441,1092.894C81.546,1092.311 71.271,1091.952 62.618,1091.816C62.672,1088.995 62.699,1086.988 62.699,1085.794C62.699,1084.194 62.672,1082.24 62.618,1079.935L77.47,1080.911L110.592,1082.335L118.16,1082.498C118.106,1084.723 118.079,1086.608 118.079,1088.154C118.079,1088.669 118.106,1090.745 118.16,1094.38Z" style="fill:rgb(138,165,172);fill-rule:nonzero;stroke:rgb(138,165,172);stroke-width:1px;stroke-linecap:butt;stroke-miterlimit:2;"/>
        <path d="M69.698,1070.128C66.904,1070.02 64.761,1069.966 63.269,1069.966L61.967,1069.966C62.021,1067.497 62.048,1065.49 62.048,1063.943C62.048,1061.828 62.021,1059.861 61.967,1058.043C62.645,1058.125 63.418,1058.179 64.286,1058.206L69.698,1058.41C69.644,1060.471 69.617,1062.37 69.617,1064.106C69.617,1065.842 69.644,1067.85 69.698,1070.128ZM118.16,1072.326C114.091,1071.919 110.686,1071.634 107.947,1071.471C103.606,1071.2 98.602,1070.962 92.932,1070.759C87.263,1070.556 81.878,1070.413 76.778,1070.332C76.832,1067.673 76.859,1065.68 76.859,1064.35C76.859,1063.13 76.832,1061.149 76.778,1058.41C81.498,1058.789 86.001,1059.095 90.287,1059.325C94.573,1059.556 99.483,1059.725 105.017,1059.834C110.551,1059.942 114.932,1059.997 118.16,1059.997C118.106,1062.465 118.079,1064.445 118.079,1065.937C118.079,1067.348 118.106,1069.477 118.16,1072.326Z" style="fill:rgb(138,165,172);fill-rule:nonzero;stroke:rgb(138,165,172);stroke-width:1px;stroke-linecap:butt;stroke-miterlimit:2;"/>
        <path d="M118.16,1050.394C112.002,1049.77 105.085,1049.248 97.408,1048.827C89.731,1048.407 82.854,1048.169 76.778,1048.115C76.832,1045.619 76.859,1043.626 76.859,1042.134C76.859,1040.37 76.832,1038.499 76.778,1036.518L83.695,1036.966C82.502,1036.125 81.552,1035.386 80.847,1034.748C80.142,1034.111 79.45,1033.297 78.772,1032.307C78.094,1031.317 77.551,1030.259 77.144,1029.133C76.737,1028.007 76.412,1026.746 76.168,1025.349C75.924,1023.952 75.801,1022.494 75.801,1020.975C75.801,1018.56 76.107,1016.248 76.717,1014.037C77.327,1011.826 78.297,1010.043 79.626,1008.686C80.956,1007.33 82.407,1006.435 83.98,1006.001C85.554,1005.567 87.222,1005.35 88.985,1005.35C89.718,1005.35 90.884,1005.39 92.484,1005.472L110.266,1006.326C112.735,1006.435 115.366,1006.503 118.16,1006.53C118.106,1008.673 118.079,1010.504 118.079,1012.023C118.079,1014.085 118.106,1016.16 118.16,1018.248C115.8,1018.031 111.683,1017.76 105.81,1017.435C99.938,1017.109 96.052,1016.946 94.153,1016.946C92.01,1016.946 90.287,1017.285 88.985,1017.964C87.683,1018.642 86.693,1019.693 86.015,1021.117C85.337,1022.541 84.997,1024.081 84.997,1025.735C84.997,1027.363 85.309,1028.882 85.933,1030.293C86.557,1031.703 87.466,1032.924 88.66,1033.955C89.88,1035.04 91.386,1035.881 93.176,1036.478C95.075,1037.102 98.208,1037.563 102.576,1037.861C106.455,1038.132 111.649,1038.349 118.16,1038.512C118.106,1040.601 118.079,1042.486 118.079,1044.168C118.079,1045.877 118.106,1047.952 118.16,1050.394Z" style="fill:rgb(138,165,172);fill-rule:nonzero;stroke:rgb(138,165,172);stroke-width:1px;stroke-linecap:butt;stroke-miterlimit:2;"/>
        <path d="M108.923,959.817C110.524,960.17 113.399,960.672 117.55,961.323C118.173,964.253 118.594,966.721 118.811,968.729C119.028,970.736 119.136,972.757 119.136,974.791C119.136,978.345 118.784,981.526 118.08,984.333C117.375,987.141 116.081,989.603 114.197,991.719C112.313,993.834 110.003,995.394 107.266,996.398C104.529,997.402 101.656,997.903 98.648,997.903C95.315,997.903 92.083,997.32 88.953,996.154C85.822,994.987 83.261,993.353 81.269,991.251C79.277,989.148 77.868,986.754 77.041,984.069C76.215,981.383 75.801,978.576 75.801,975.646C75.801,972.879 76.147,970.248 76.837,967.752C77.528,965.256 78.658,963.161 80.228,961.465C81.799,959.77 83.687,958.468 85.894,957.559C88.1,956.65 90.558,956.196 93.265,956.196C94.538,956.196 95.851,956.332 97.204,956.603L97.245,986.429C98.249,986.483 99.049,986.51 99.646,986.51C101.463,986.51 103.132,986.198 104.651,985.574C106.17,984.95 107.458,984.042 108.516,982.848C109.574,981.654 110.354,980.23 110.856,978.576C111.358,976.921 111.609,975.293 111.609,973.693C111.609,971.821 111.405,969.793 110.998,967.61C110.592,965.426 109.9,962.829 108.923,959.817ZM92.484,986.103L92.525,967.06C91.228,967.06 90.269,967.101 89.648,967.182C89.026,967.264 88.317,967.447 87.52,967.732C86.723,968.017 86.021,968.403 85.413,968.891C84.805,969.38 84.299,969.949 83.894,970.6C83.489,971.251 83.178,972.004 82.962,972.859C82.746,973.713 82.637,974.629 82.637,975.605C82.637,976.745 82.813,977.85 83.164,978.921C83.515,979.993 84.029,980.976 84.704,981.872C85.38,982.767 86.136,983.492 86.973,984.048C87.811,984.605 88.615,985.018 89.385,985.289C90.155,985.561 91.188,985.832 92.484,986.103Z" style="fill:rgb(138,165,172);fill-rule:nonzero;stroke:rgb(138,165,172);stroke-width:1px;stroke-linecap:butt;stroke-miterlimit:2;"/>
        <path d="M118.16,929.219L104.936,928.242L86.015,927.265L62.618,926.696C62.672,924.309 62.699,922.328 62.699,920.755C62.699,918.693 62.672,916.727 62.618,914.855L72.302,915.587C74.689,915.75 78.528,915.967 83.817,916.238C82.515,915.37 81.539,914.645 80.888,914.061C80.237,913.478 79.633,912.827 79.077,912.108C78.521,911.389 78.053,910.65 77.673,909.891C77.293,909.131 76.954,908.243 76.656,907.226C76.358,906.208 76.127,905.076 75.964,903.828C75.801,902.58 75.72,901.305 75.72,900.003C75.72,897.751 75.978,895.588 76.493,893.513C77.009,891.438 77.877,889.647 79.097,888.142C80.318,886.636 81.749,885.605 83.39,885.049C85.031,884.493 86.747,884.215 88.537,884.215C89.704,884.215 91.521,884.283 93.99,884.419L111.772,885.395C113.616,885.477 115.746,885.517 118.16,885.517C118.106,887.715 118.079,889.654 118.079,891.336C118.079,893.154 118.106,895.229 118.16,897.562C114.959,897.182 110.592,896.809 105.058,896.443C99.524,896.076 95.59,895.893 93.258,895.893C91.115,895.893 89.439,896.239 88.232,896.931C87.025,897.623 86.13,898.64 85.547,899.983C84.964,901.325 84.672,902.797 84.672,904.398C84.672,906.459 85.038,908.277 85.771,909.85C86.476,911.369 87.534,912.644 88.944,913.675C90.111,914.516 91.779,915.221 93.949,915.791C96.228,916.388 99.754,916.822 104.529,917.093C106.834,917.228 111.378,917.378 118.16,917.54C118.106,919.683 118.079,921.528 118.079,923.074C118.079,924.539 118.106,926.587 118.16,929.219Z" style="fill:rgb(138,165,172);fill-rule:nonzero;stroke:rgb(138,165,172);stroke-width:1px;stroke-linecap:butt;stroke-miterlimit:2;"/>
        <path d="M108.923,838.683C110.524,839.036 113.399,839.538 117.55,840.189C118.173,843.118 118.594,845.587 118.811,847.594C119.028,849.602 119.136,851.622 119.136,853.657C119.136,857.211 118.784,860.391 118.08,863.199C117.375,866.006 116.081,868.468 114.197,870.584C112.313,872.7 110.003,874.26 107.266,875.263C104.529,876.267 101.656,876.769 98.648,876.769C95.315,876.769 92.083,876.186 88.953,875.019C85.822,873.853 83.261,872.218 81.269,870.116C79.277,868.014 77.868,865.62 77.041,862.934C76.215,860.249 75.801,857.441 75.801,854.511C75.801,851.745 76.147,849.113 76.837,846.618C77.528,844.122 78.658,842.026 80.228,840.331C81.799,838.636 83.687,837.333 85.894,836.425C88.1,835.516 90.558,835.062 93.265,835.062C94.538,835.062 95.851,835.197 97.204,835.469L97.245,865.294C98.249,865.349 99.049,865.376 99.646,865.376C101.463,865.376 103.132,865.064 104.651,864.44C106.17,863.816 107.458,862.907 108.516,861.714C109.574,860.52 110.354,859.096 110.856,857.441C111.358,855.786 111.609,854.159 111.609,852.558C111.609,850.687 111.405,848.659 110.998,846.475C110.592,844.291 109.9,841.694 108.923,838.683ZM92.484,864.969L92.525,845.926C91.228,845.926 90.269,845.967 89.648,846.048C89.026,846.129 88.317,846.312 87.52,846.597C86.723,846.882 86.021,847.269 85.413,847.757C84.805,848.245 84.299,848.815 83.894,849.466C83.489,850.117 83.178,850.87 82.962,851.724C82.746,852.579 82.637,853.494 82.637,854.471C82.637,855.61 82.813,856.716 83.164,857.787C83.515,858.859 84.029,859.842 84.704,860.737C85.38,861.632 86.136,862.358 86.973,862.914C87.811,863.47 88.615,863.884 89.385,864.155C90.155,864.426 91.188,864.698 92.484,864.969Z" style="fill:rgb(138,165,172);fill-rule:nonzero;stroke:rgb(138,165,172);stroke-width:1px;stroke-linecap:butt;stroke-miterlimit:2;"/>
        <path d="M69.698,826.72C66.904,826.612 64.761,826.557 63.269,826.557L61.967,826.557C62.021,824.089 62.048,822.081 62.048,820.535C62.048,818.419 62.021,816.453 61.967,814.635C62.645,814.717 63.418,814.771 64.286,814.798L69.698,815.001C69.644,817.063 69.617,818.962 69.617,820.698C69.617,822.434 69.644,824.441 69.698,826.72ZM118.16,828.917C114.091,828.511 110.686,828.226 107.947,828.063C103.606,827.792 98.602,827.554 92.932,827.351C87.263,827.147 81.878,827.005 76.778,826.924C76.832,824.265 76.859,822.271 76.859,820.942C76.859,819.721 76.832,817.741 76.778,815.001C81.498,815.381 86.001,815.686 90.287,815.917C94.573,816.147 99.483,816.317 105.017,816.426C110.551,816.534 114.932,816.588 118.16,816.588C118.106,819.057 118.079,821.037 118.079,822.529C118.079,823.94 118.106,826.069 118.16,828.917Z" style="fill:rgb(138,165,172);fill-rule:nonzero;stroke:rgb(138,165,172);stroke-width:1px;stroke-linecap:butt;stroke-miterlimit:2;"/>
        <path d="M126.745,803.771C128.753,797.667 129.757,792.378 129.757,787.902C129.757,786.193 129.547,784.579 129.127,783.06C128.708,781.541 128.098,780.266 127.3,779.235C126.502,778.204 125.419,777.404 124.052,776.834C122.685,776.264 121.102,775.885 119.302,775.695C117.502,775.505 114.775,775.356 111.12,775.247C112.558,776.305 113.677,777.255 114.477,778.095C115.278,778.936 115.997,779.947 116.634,781.127C117.271,782.307 117.787,783.684 118.18,785.257C118.574,786.83 118.77,788.485 118.77,790.221C118.77,792.608 118.397,794.873 117.651,797.016C116.905,799.159 115.732,801.065 114.132,802.733C112.531,804.402 110.517,805.67 108.089,806.538C105.661,807.406 103.132,807.84 100.5,807.84C96.73,807.84 93.163,807.128 89.799,805.704C86.435,804.28 83.668,802.191 81.498,799.437C79.328,796.684 77.836,793.741 77.022,790.608C76.208,787.475 75.801,783.996 75.801,780.171C75.801,778.055 75.93,775.654 76.188,772.969C76.446,770.283 76.968,766.729 77.755,762.308L90.644,763.244L106.788,764.098L121.385,764.424C123.039,764.505 124.631,764.708 126.163,765.034C127.695,765.359 129.078,765.875 130.311,766.58C131.544,767.285 132.635,768.181 133.584,769.266C134.533,770.351 135.299,771.578 135.882,772.948C136.465,774.318 136.946,776.013 137.325,778.034C137.705,780.055 137.895,782.219 137.895,784.524C137.895,786.993 137.732,789.801 137.406,792.947C137.081,796.094 136.47,799.526 135.575,803.242L126.745,803.771ZM84.916,774.067C84.428,776.427 84.184,778.611 84.184,780.618C84.184,784.145 84.829,787.061 86.12,789.367C87.41,791.672 89.291,793.449 91.763,794.697C94.236,795.945 96.858,796.569 99.629,796.569C101.667,796.569 103.562,796.189 105.314,795.429C107.066,794.67 108.391,793.483 109.288,791.869C110.184,790.255 110.632,788.471 110.632,786.518C110.632,785.135 110.415,783.84 109.981,782.632C109.546,781.425 108.88,780.333 107.984,779.357C107.087,778.38 105.973,777.519 104.641,776.773C103.31,776.027 101.809,775.498 100.138,775.186C98.467,774.874 96.375,774.637 93.862,774.474C91.349,774.311 88.367,774.176 84.916,774.067Z" style="fill:rgb(138,165,172);fill-rule:nonzero;stroke:rgb(138,165,172);stroke-width:1px;stroke-linecap:butt;stroke-miterlimit:2;"/>
        <path d="M118.16,754.17L104.936,753.193L86.015,752.217L62.618,751.647C62.672,749.26 62.699,747.279 62.699,745.706C62.699,743.645 62.672,741.678 62.618,739.806L72.302,740.538C74.689,740.701 78.528,740.918 83.817,741.19C82.515,740.321 81.539,739.596 80.888,739.013C80.237,738.429 79.633,737.778 79.077,737.059C78.521,736.341 78.053,735.601 77.673,734.842C77.293,734.082 76.954,733.194 76.656,732.177C76.358,731.159 76.127,730.027 75.964,728.779C75.801,727.531 75.72,726.256 75.72,724.954C75.72,722.703 75.978,720.539 76.493,718.464C77.009,716.389 77.877,714.599 79.097,713.093C80.318,711.587 81.749,710.557 83.39,710.001C85.031,709.444 86.747,709.166 88.537,709.166C89.704,709.166 91.521,709.234 93.99,709.37L111.772,710.346C113.616,710.428 115.746,710.469 118.16,710.469C118.106,712.666 118.079,714.605 118.079,716.287C118.079,718.105 118.106,720.18 118.16,722.513C114.959,722.133 110.592,721.76 105.058,721.394C99.524,721.028 95.59,720.844 93.258,720.844C91.115,720.844 89.439,721.19 88.232,721.882C87.025,722.574 86.13,723.591 85.547,724.934C84.964,726.277 84.672,727.748 84.672,729.349C84.672,731.41 85.038,733.228 85.771,734.801C86.476,736.32 87.534,737.595 88.944,738.626C90.111,739.467 91.779,740.172 93.949,740.742C96.228,741.339 99.754,741.773 104.529,742.044C106.834,742.18 111.378,742.329 118.16,742.492C118.106,744.635 118.079,746.479 118.079,748.025C118.079,749.49 118.106,751.538 118.16,754.17Z" style="fill:rgb(138,165,172);fill-rule:nonzero;stroke:rgb(138,165,172);stroke-width:1px;stroke-linecap:butt;stroke-miterlimit:2;"/>
        <path d="M109.656,675.19C111.148,675.516 113.915,676.031 117.956,676.736C118.472,679.015 118.797,680.805 118.933,682.108C119.069,683.41 119.136,684.63 119.136,685.77C119.136,687.777 118.947,689.574 118.567,691.161C118.187,692.748 117.516,694.057 116.553,695.088C115.59,696.118 114.464,696.817 113.175,697.183C111.887,697.549 110.551,697.733 109.167,697.733C108.815,697.733 108.34,697.719 107.743,697.692C107.146,697.665 105.22,697.556 101.965,697.366L85.038,696.43L85.038,702.29C83.411,702.154 80.793,702.032 77.185,701.924L77.185,695.779C75.612,695.617 72.94,695.454 69.169,695.291L68.233,690.49C68.043,689.486 67.596,687.546 66.89,684.671C70.552,684.861 73.984,684.969 77.185,684.997L77.185,674.661C80.847,674.851 83.465,674.946 85.038,674.946L85.038,685.322C96.079,685.892 102.467,686.177 104.203,686.177C105.885,686.177 107.187,685.993 108.109,685.627C109.032,685.261 109.696,684.671 110.103,683.857C110.51,683.043 110.714,682.175 110.714,681.253C110.714,680.575 110.659,679.863 110.551,679.117C110.442,678.371 110.144,677.062 109.656,675.19Z" style="fill:rgb(138,165,172);fill-rule:nonzero;stroke:rgb(138,165,172);stroke-width:1px;stroke-linecap:butt;stroke-miterlimit:2;"/>
        <path d="M632.08,139.567L633.057,126.343L634.033,107.422L634.603,84.025C636.99,84.079 638.97,84.107 640.544,84.107C642.605,84.107 644.572,84.079 646.444,84.025L645.711,93.709C645.549,96.097 645.332,99.935 645.06,105.225C645.928,103.923 646.654,102.946 647.237,102.295C647.82,101.644 648.471,101.04 649.19,100.484C649.909,99.928 650.648,99.46 651.408,99.081C652.167,98.701 653.056,98.362 654.073,98.063C655.09,97.765 656.223,97.534 657.471,97.372C658.719,97.209 659.994,97.127 661.296,97.127C663.547,97.127 665.71,97.385 667.786,97.901C669.861,98.416 671.651,99.284 673.157,100.505C674.662,101.725 675.693,103.156 676.249,104.798C676.805,106.439 677.083,108.154 677.083,109.945C677.083,111.111 677.016,112.929 676.88,115.397L675.903,133.179C675.822,135.024 675.781,137.153 675.781,139.567C673.584,139.513 671.644,139.486 669.963,139.486C668.145,139.486 666.07,139.513 663.737,139.567C664.117,136.366 664.49,131.999 664.856,126.465C665.222,120.931 665.405,116.998 665.405,114.665C665.405,112.522 665.059,110.847 664.368,109.64C663.676,108.433 662.659,107.537 661.316,106.954C659.973,106.371 658.502,106.079 656.901,106.079C654.839,106.079 653.022,106.445 651.449,107.178C649.93,107.883 648.655,108.941 647.624,110.352C646.783,111.518 646.078,113.186 645.508,115.357C644.911,117.635 644.477,121.162 644.206,125.936C644.07,128.242 643.921,132.786 643.758,139.567C641.615,139.513 639.771,139.486 638.224,139.486C636.759,139.486 634.711,139.513 632.08,139.567Z" style="fill:rgb(138,165,172);fill-rule:nonzero;stroke:rgb(138,165,172);stroke-width:1px;stroke-linecap:butt;stroke-miterlimit:2;"/>
        <path d="M707.926,97.209C711.046,97.209 714.037,97.677 716.899,98.613C719.761,99.549 722.188,100.932 724.182,102.763C726.176,104.594 727.675,106.832 728.678,109.477C729.682,112.122 730.184,114.909 730.184,117.839C730.184,120.931 729.655,123.915 728.597,126.791C727.539,129.666 726.006,132.155 723.999,134.257C721.992,136.359 719.489,137.933 716.492,138.977C713.494,140.022 710.3,140.544 706.909,140.544C703.763,140.544 700.772,140.076 697.937,139.14C695.102,138.204 692.681,136.8 690.674,134.929C688.666,133.057 687.141,130.778 686.096,128.093C685.052,125.407 684.53,122.599 684.53,119.67C684.53,116.686 685.004,113.838 685.954,111.125C686.903,108.412 688.388,105.998 690.409,103.882C692.43,101.766 695.014,100.125 698.161,98.959C701.308,97.792 704.563,97.209 707.926,97.209ZM707.926,105.591C705.566,105.591 703.457,106.167 701.599,107.32C699.741,108.473 698.358,110.189 697.449,112.468C696.54,114.746 696.086,117.228 696.086,119.914C696.086,122.274 696.459,124.376 697.205,126.221C697.951,128.065 699.171,129.557 700.867,130.697C702.562,131.836 704.576,132.406 706.909,132.406C709.296,132.406 711.392,131.816 713.196,130.636C715,129.456 716.356,127.72 717.265,125.427C718.174,123.135 718.628,120.606 718.628,117.839C718.628,115.587 718.275,113.539 717.57,111.695C716.865,109.85 715.678,108.371 714.01,107.259C712.341,106.147 710.314,105.591 707.926,105.591Z" style="fill:rgb(138,165,172);fill-rule:nonzero;stroke:rgb(138,165,172);stroke-width:1px;stroke-linecap:butt;stroke-miterlimit:2;"/>
        <path d="M737.101,139.567L738.281,120.239L738.607,109.009C738.661,106.703 738.688,104.384 738.688,102.051C738.688,101.644 738.661,100.356 738.607,98.185C741.13,98.24 742.988,98.267 744.181,98.267C745.565,98.267 747.396,98.24 749.675,98.185L749.471,103.923C750.502,102.458 751.383,101.366 752.116,100.647C752.848,99.928 753.669,99.311 754.578,98.796C755.486,98.28 756.497,97.887 757.609,97.616C758.721,97.344 759.861,97.209 761.027,97.209C762.112,97.209 763.224,97.344 764.364,97.616C764.364,100.139 764.486,103.339 764.73,107.219C763.129,106.785 761.678,106.568 760.376,106.568C758.803,106.568 757.412,106.805 756.205,107.28C754.998,107.754 753.913,108.473 752.95,109.436C751.987,110.399 751.194,111.586 750.57,112.997C750.054,114.136 749.675,115.614 749.43,117.432C749.213,118.842 749.03,121.257 748.881,124.675C748.732,128.093 748.657,131.456 748.657,134.766C748.657,136.041 748.698,137.641 748.779,139.567C746.718,139.513 744.832,139.486 743.123,139.486C741.442,139.486 739.434,139.513 737.101,139.567Z" style="fill:rgb(138,165,172);fill-rule:nonzero;stroke:rgb(138,165,172);stroke-width:1px;stroke-linecap:butt;stroke-miterlimit:2;"/>
        <path d="M771.688,91.105C771.796,88.311 771.851,86.168 771.851,84.676L771.851,83.374C774.319,83.428 776.327,83.456 777.873,83.456C779.989,83.456 781.955,83.428 783.773,83.374C783.691,84.052 783.637,84.825 783.61,85.694L783.407,91.105C781.345,91.051 779.446,91.024 777.71,91.024C775.974,91.024 773.967,91.051 771.688,91.105ZM769.491,139.567C769.897,135.498 770.182,132.094 770.345,129.354C770.616,125.014 770.854,120.009 771.057,114.339C771.261,108.67 771.403,103.285 771.484,98.185C774.143,98.24 776.137,98.267 777.466,98.267C778.687,98.267 780.667,98.24 783.407,98.185C783.027,102.905 782.722,107.408 782.491,111.695C782.261,115.981 782.091,120.89 781.982,126.424C781.874,131.958 781.82,136.339 781.82,139.567C779.351,139.513 777.371,139.486 775.879,139.486C774.468,139.486 772.339,139.513 769.491,139.567Z" style="fill:rgb(138,165,172);fill-rule:nonzero;stroke:rgb(138,165,172);stroke-width:1px;stroke-linecap:butt;stroke-miterlimit:2;"/>
        <path d="M789.592,139.567C789.7,136.909 789.781,133.911 789.836,130.575C790.894,129.517 791.585,128.784 791.911,128.377L811.808,105.917L809.692,105.917C806.085,105.917 802.918,105.957 800.191,106.039C797.465,106.12 794.8,106.242 792.196,106.405C792.386,103.801 792.48,101.061 792.48,98.185C797.201,98.24 801.622,98.267 805.745,98.267C813.205,98.267 819.539,98.24 824.748,98.185C824.639,99.325 824.49,102.485 824.3,107.666L803.996,130.249L802.612,131.673C805.325,131.782 807.604,131.836 809.448,131.836C813.436,131.836 816.182,131.816 817.688,131.775C819.194,131.734 821.045,131.66 823.242,131.551C823.025,133.586 822.835,136.258 822.673,139.567C817.898,139.513 812.5,139.486 806.478,139.486C800.049,139.486 794.42,139.513 789.592,139.567Z" style="fill:rgb(138,165,172);fill-rule:nonzero;stroke:rgb(138,165,172);stroke-width:1px;stroke-linecap:butt;stroke-miterlimit:2;"/>
        <path d="M854.167,97.209C857.286,97.209 860.277,97.677 863.139,98.613C866.001,99.549 868.429,100.932 870.422,102.763C872.416,104.594 873.915,106.832 874.919,109.477C875.922,112.122 876.424,114.909 876.424,117.839C876.424,120.931 875.895,123.915 874.837,126.791C873.779,129.666 872.247,132.155 870.239,134.257C868.232,136.359 865.729,137.933 862.732,138.977C859.734,140.022 856.54,140.544 853.149,140.544C850.003,140.544 847.012,140.076 844.177,139.14C841.343,138.204 838.921,136.8 836.914,134.929C834.907,133.057 833.381,130.778 832.336,128.093C831.292,125.407 830.77,122.599 830.77,119.67C830.77,116.686 831.245,113.838 832.194,111.125C833.143,108.412 834.629,105.998 836.65,103.882C838.671,101.766 841.254,100.125 844.401,98.959C847.548,97.792 850.803,97.209 854.167,97.209ZM854.167,105.591C851.807,105.591 849.698,106.167 847.839,107.32C845.981,108.473 844.598,110.189 843.689,112.468C842.78,114.746 842.326,117.228 842.326,119.914C842.326,122.274 842.699,124.376 843.445,126.221C844.191,128.065 845.412,129.557 847.107,130.697C848.802,131.836 850.817,132.406 853.149,132.406C855.537,132.406 857.632,131.816 859.436,130.636C861.24,129.456 862.596,127.72 863.505,125.427C864.414,123.135 864.868,120.606 864.868,117.839C864.868,115.587 864.516,113.539 863.81,111.695C863.105,109.85 861.918,108.371 860.25,107.259C858.582,106.147 856.554,105.591 854.167,105.591Z" style="fill:rgb(138,165,172);fill-rule:nonzero;stroke:rgb(138,165,172);stroke-width:1px;stroke-linecap:butt;stroke-miterlimit:2;"/>
        <path d="M883.097,139.567C883.721,133.409 884.243,126.492 884.664,118.815C885.084,111.138 885.322,104.262 885.376,98.185C887.872,98.24 889.865,98.267 891.357,98.267C893.121,98.267 894.992,98.24 896.973,98.185L896.525,105.103C897.366,103.909 898.105,102.96 898.743,102.254C899.38,101.549 900.194,100.857 901.184,100.179C902.174,99.501 903.232,98.959 904.358,98.552C905.484,98.145 906.745,97.819 908.142,97.575C909.539,97.331 910.997,97.209 912.516,97.209C914.931,97.209 917.243,97.514 919.454,98.124C921.665,98.735 923.448,99.704 924.805,101.034C926.161,102.363 927.056,103.814 927.49,105.388C927.924,106.961 928.141,108.629 928.141,110.392C928.141,111.125 928.101,112.291 928.019,113.892L927.165,131.673C927.056,134.142 926.988,136.773 926.961,139.567C924.818,139.513 922.987,139.486 921.468,139.486C919.406,139.486 917.331,139.513 915.243,139.567C915.46,137.207 915.731,133.091 916.056,127.218C916.382,121.345 916.545,117.459 916.545,115.56C916.545,113.417 916.206,111.695 915.527,110.392C914.849,109.09 913.798,108.1 912.374,107.422C910.95,106.744 909.41,106.405 907.756,106.405C906.128,106.405 904.609,106.717 903.198,107.341C901.788,107.965 900.567,108.873 899.536,110.067C898.451,111.288 897.61,112.793 897.013,114.584C896.389,116.482 895.928,119.616 895.63,123.983C895.359,127.862 895.142,133.057 894.979,139.567C892.89,139.513 891.005,139.486 889.323,139.486C887.614,139.486 885.539,139.513 883.097,139.567Z" style="fill:rgb(138,165,172);fill-rule:nonzero;stroke:rgb(138,165,172);stroke-width:1px;stroke-linecap:butt;stroke-miterlimit:2;"/>
        <path d="M962.118,131.063C961.792,132.555 961.277,135.322 960.571,139.364C958.293,139.879 956.502,140.205 955.2,140.34C953.898,140.476 952.677,140.544 951.538,140.544C949.531,140.544 947.734,140.354 946.147,139.974C944.56,139.594 943.251,138.923 942.22,137.96C941.189,136.997 940.491,135.871 940.125,134.583C939.758,133.294 939.575,131.958 939.575,130.575C939.575,130.222 939.589,129.747 939.616,129.151C939.643,128.554 939.752,126.628 939.941,123.373L940.877,106.445L935.018,106.445C935.154,104.818 935.276,102.2 935.384,98.592L941.528,98.592C941.691,97.019 941.854,94.347 942.017,90.576L946.818,89.64C947.822,89.451 949.761,89.003 952.637,88.298C952.447,91.96 952.338,95.391 952.311,98.592L962.647,98.592C962.457,102.254 962.362,104.872 962.362,106.445L951.986,106.445C951.416,117.486 951.131,123.874 951.131,125.611C951.131,127.292 951.314,128.594 951.681,129.517C952.047,130.439 952.637,131.104 953.451,131.511C954.264,131.917 955.132,132.121 956.055,132.121C956.733,132.121 957.445,132.067 958.191,131.958C958.937,131.85 960.246,131.551 962.118,131.063Z" style="fill:rgb(138,165,172);fill-rule:nonzero;stroke:rgb(138,165,172);stroke-width:1px;stroke-linecap:butt;stroke-miterlimit:2;"/>
        <path d="M970.825,107.259C971.205,105.306 971.442,103.936 971.537,103.15C971.632,102.363 971.802,101.169 972.046,99.569C975.735,98.701 978.99,98.09 981.812,97.738C984.633,97.385 987.359,97.209 989.99,97.209C992.974,97.209 995.714,97.555 998.21,98.246C1000.705,98.938 1002.658,100.044 1004.069,101.563C1005.48,103.082 1006.185,105.265 1006.185,108.114C1006.185,109.66 1005.968,113.6 1005.534,119.934C1005.1,126.268 1004.842,132.813 1004.761,139.567C1002.699,139.513 1000.8,139.486 999.064,139.486C997.409,139.486 995.47,139.513 993.245,139.567C993.598,136.285 993.883,132.487 994.1,128.174L994.629,118.042C993.598,118.72 992.811,119.195 992.269,119.466C991.726,119.738 991.116,119.989 990.438,120.219C989.76,120.45 988.566,120.802 986.857,121.277C985.148,121.752 983.778,122.165 982.747,122.518C981.717,122.871 980.788,123.271 979.96,123.718C979.133,124.166 978.434,124.668 977.865,125.224C977.295,125.78 976.881,126.363 976.624,126.974C976.366,127.584 976.237,128.242 976.237,128.947C976.237,130.086 976.569,131.07 977.234,131.897C977.899,132.725 978.733,133.301 979.736,133.626C980.74,133.952 981.92,134.115 983.276,134.115C984.144,134.115 985.06,134.047 986.023,133.911C986.986,133.776 988.281,133.437 989.909,132.894C989.339,134.44 988.675,136.746 987.915,139.811C985.989,140.137 984.456,140.34 983.317,140.422C982.178,140.503 981.12,140.544 980.143,140.544C976.725,140.544 973.918,140.083 971.72,139.16C969.523,138.238 967.902,136.773 966.858,134.766C965.814,132.758 965.291,130.737 965.291,128.703C965.291,127.537 965.495,126.384 965.902,125.244C966.309,124.105 966.905,123.061 967.692,122.111C968.479,121.162 969.496,120.246 970.744,119.365C971.992,118.483 973.796,117.628 976.156,116.801C978.516,115.974 981.635,115.14 985.514,114.299C986.545,114.082 987.617,113.817 988.729,113.505C989.841,113.193 990.729,112.888 991.394,112.59C992.059,112.291 992.635,111.905 993.123,111.43C993.612,110.955 993.971,110.46 994.202,109.945C994.432,109.429 994.548,108.9 994.548,108.358C994.548,107.3 994.202,106.405 993.51,105.672C992.818,104.94 991.923,104.431 990.824,104.146C989.726,103.862 988.512,103.719 987.183,103.719C982.246,103.719 976.793,104.899 970.825,107.259Z" style="fill:rgb(138,165,172);fill-rule:nonzero;stroke:rgb(138,165,172);stroke-width:1px;stroke-linecap:butt;stroke-miterlimit:2;"/>
        <path d="M1014.974,139.567C1015.381,134.983 1015.876,126.743 1016.459,114.848C1017.042,102.953 1017.402,92.679 1017.537,84.025C1020.359,84.079 1022.366,84.107 1023.56,84.107C1025.16,84.107 1027.113,84.079 1029.419,84.025L1028.442,98.877L1027.018,131.999L1026.855,139.567C1024.631,139.513 1022.746,139.486 1021.2,139.486C1020.684,139.486 1018.609,139.513 1014.974,139.567Z" style="fill:rgb(138,165,172);fill-rule:nonzero;stroke:rgb(138,165,172);stroke-width:1px;stroke-linecap:butt;stroke-miterlimit:2;"/>
        <path d="M1056.763,138.794L1055.868,129.842C1058.526,130.927 1060.777,131.68 1062.622,132.101C1064.467,132.521 1066.162,132.731 1067.708,132.731C1069.255,132.731 1070.557,132.548 1071.615,132.182C1072.673,131.816 1073.459,131.273 1073.975,130.554C1074.49,129.836 1074.748,129.083 1074.748,128.296C1074.748,127.943 1074.714,127.618 1074.646,127.32C1074.578,127.021 1074.456,126.709 1074.28,126.384C1074.103,126.058 1073.9,125.753 1073.669,125.468C1073.439,125.183 1073.12,124.858 1072.713,124.492C1072.306,124.125 1071.723,123.657 1070.964,123.088L1068.766,121.338C1066.65,119.683 1065.036,118.381 1063.924,117.432C1062.812,116.482 1061.876,115.513 1061.117,114.522C1060.357,113.532 1059.781,112.488 1059.387,111.389C1058.994,110.291 1058.797,109.172 1058.797,108.032C1058.797,106.052 1059.401,104.167 1060.608,102.376C1061.815,100.586 1063.572,99.277 1065.877,98.45C1068.183,97.623 1070.896,97.209 1074.015,97.209C1077.569,97.209 1081.665,97.629 1086.304,98.47L1086.833,106.974C1083.686,105.7 1080.661,105.062 1077.759,105.062C1076.185,105.062 1074.809,105.218 1073.629,105.53C1072.449,105.842 1071.601,106.317 1071.086,106.954C1070.57,107.592 1070.313,108.304 1070.313,109.09C1070.313,109.551 1070.394,110.006 1070.557,110.453C1070.719,110.901 1071.004,111.369 1071.411,111.857C1071.818,112.346 1072.286,112.807 1072.815,113.241C1073.344,113.675 1074.449,114.529 1076.131,115.804C1077.813,117.079 1079.285,118.232 1080.546,119.263C1081.807,120.294 1082.845,121.331 1083.659,122.376C1084.473,123.42 1085.097,124.539 1085.531,125.733C1085.965,126.926 1086.182,128.133 1086.182,129.354C1086.182,131.389 1085.558,133.274 1084.31,135.01C1083.062,136.746 1081.177,138.102 1078.654,139.079C1076.131,140.056 1073.31,140.544 1070.19,140.544C1068.563,140.544 1066.583,140.415 1064.25,140.157C1061.917,139.9 1059.421,139.445 1056.763,138.794Z" style="fill:rgb(138,165,172);fill-rule:nonzero;stroke:rgb(138,165,172);stroke-width:1px;stroke-linecap:butt;stroke-miterlimit:2;"/>
        <path d="M1093.384,158.244C1094.062,150.676 1094.672,140.869 1095.215,128.825C1095.757,116.781 1096.029,107.002 1096.029,99.487C1101.183,98.565 1105.17,97.955 1107.992,97.656C1110.813,97.358 1113.62,97.209 1116.414,97.209C1120.077,97.209 1123.433,97.643 1126.485,98.511C1129.537,99.379 1131.978,100.83 1133.809,102.865C1135.64,104.899 1136.997,107.259 1137.878,109.945C1138.76,112.63 1139.201,115.438 1139.201,118.368C1139.201,121.325 1138.78,124.173 1137.939,126.913C1137.099,129.652 1135.81,132.114 1134.074,134.298C1132.338,136.482 1130.324,138.068 1128.031,139.059C1125.739,140.049 1123.237,140.544 1120.524,140.544C1118.924,140.544 1117.344,140.354 1115.784,139.974C1114.224,139.594 1112.854,139.093 1111.674,138.469C1110.494,137.845 1109.524,137.214 1108.765,136.577C1108.005,135.939 1107.042,134.983 1105.876,133.708L1105.265,151.408L1105.225,154.175C1105.198,154.528 1105.184,155.884 1105.184,158.244C1102.688,158.217 1100.762,158.203 1099.406,158.203L1093.384,158.244ZM1107.259,106.974C1107.069,108.439 1106.934,109.701 1106.852,110.759L1106.608,115.275C1106.5,117.224 1106.445,118.658 1106.445,119.578C1106.445,121.229 1106.615,122.812 1106.954,124.328C1107.293,125.843 1107.971,127.237 1108.988,128.509C1110.006,129.781 1111.213,130.748 1112.61,131.411C1114.007,132.074 1115.451,132.406 1116.943,132.406C1119.005,132.406 1120.884,131.817 1122.579,130.638C1124.274,129.46 1125.583,127.733 1126.506,125.459C1127.428,123.183 1127.889,120.759 1127.889,118.186C1127.889,115.342 1127.38,112.938 1126.363,110.974C1125.346,109.01 1123.983,107.582 1122.274,106.688C1120.565,105.794 1118.625,105.347 1116.455,105.347C1113.634,105.347 1110.569,105.889 1107.259,106.974Z" style="fill:rgb(138,165,172);fill-rule:nonzero;stroke:rgb(138,165,172);stroke-width:1px;stroke-linecap:butt;stroke-miterlimit:2;"/>
        <path d="M1149.333,107.259C1149.712,105.306 1149.95,103.936 1150.045,103.15C1150.14,102.363 1150.309,101.169 1150.553,99.569C1154.243,98.701 1157.498,98.09 1160.319,97.738C1163.14,97.385 1165.866,97.209 1168.498,97.209C1171.482,97.209 1174.221,97.555 1176.717,98.246C1179.213,98.938 1181.166,100.044 1182.577,101.563C1183.987,103.082 1184.692,105.265 1184.692,108.114C1184.692,109.66 1184.475,113.6 1184.041,119.934C1183.607,126.268 1183.35,132.813 1183.268,139.567C1181.207,139.513 1179.308,139.486 1177.572,139.486C1175.917,139.486 1173.977,139.513 1171.753,139.567C1172.106,136.285 1172.39,132.487 1172.607,128.174L1173.136,118.042C1172.106,118.72 1171.319,119.195 1170.776,119.466C1170.234,119.738 1169.624,119.989 1168.945,120.219C1168.267,120.45 1167.074,120.802 1165.365,121.277C1163.656,121.752 1162.286,122.165 1161.255,122.518C1160.224,122.871 1159.295,123.271 1158.468,123.718C1157.64,124.166 1156.942,124.668 1156.372,125.224C1155.802,125.78 1155.389,126.363 1155.131,126.974C1154.873,127.584 1154.744,128.242 1154.744,128.947C1154.744,130.086 1155.077,131.07 1155.741,131.897C1156.406,132.725 1157.24,133.301 1158.244,133.626C1159.248,133.952 1160.428,134.115 1161.784,134.115C1162.652,134.115 1163.567,134.047 1164.53,133.911C1165.493,133.776 1166.789,133.437 1168.416,132.894C1167.847,134.44 1167.182,136.746 1166.423,139.811C1164.497,140.137 1162.964,140.34 1161.825,140.422C1160.685,140.503 1159.627,140.544 1158.651,140.544C1155.233,140.544 1152.425,140.083 1150.228,139.16C1148.031,138.238 1146.41,136.773 1145.365,134.766C1144.321,132.758 1143.799,130.737 1143.799,128.703C1143.799,127.537 1144.002,126.384 1144.409,125.244C1144.816,124.105 1145.413,123.061 1146.2,122.111C1146.986,121.162 1148.004,120.246 1149.251,119.365C1150.499,118.483 1152.303,117.628 1154.663,116.801C1157.023,115.974 1160.143,115.14 1164.022,114.299C1165.053,114.082 1166.124,113.817 1167.236,113.505C1168.349,113.193 1169.237,112.888 1169.902,112.59C1170.566,112.291 1171.143,111.905 1171.631,111.43C1172.119,110.955 1172.479,110.46 1172.709,109.945C1172.94,109.429 1173.055,108.9 1173.055,108.358C1173.055,107.3 1172.709,106.405 1172.017,105.672C1171.326,104.94 1170.431,104.431 1169.332,104.146C1168.233,103.862 1167.019,103.719 1165.69,103.719C1160.753,103.719 1155.301,104.899 1149.333,107.259Z" style="fill:rgb(138,165,172);fill-rule:nonzero;stroke:rgb(138,165,172);stroke-width:1px;stroke-linecap:butt;stroke-miterlimit:2;"/>
        <path d="M1225.871,130.168C1225.735,131.28 1225.532,132.541 1225.26,133.952C1224.989,135.363 1224.704,137.112 1224.406,139.201C1220.527,140.096 1216.702,140.544 1212.931,140.544C1210.734,140.544 1208.618,140.34 1206.584,139.933C1204.549,139.527 1202.657,138.801 1200.907,137.757C1199.158,136.712 1197.618,135.335 1196.289,133.626C1194.96,131.917 1193.963,129.849 1193.298,127.421C1192.634,124.993 1192.301,122.491 1192.301,119.914C1192.301,116.496 1192.851,113.214 1193.949,110.067C1195.048,106.92 1196.655,104.35 1198.771,102.356C1200.887,100.362 1203.24,99.006 1205.831,98.287C1208.422,97.568 1211.304,97.209 1214.478,97.209C1216.241,97.209 1218.058,97.311 1219.93,97.514C1221.802,97.717 1224.013,98.131 1226.563,98.755L1227.173,107.666C1223.131,106.283 1219.605,105.591 1216.593,105.591C1214.749,105.591 1213.006,105.903 1211.365,106.527C1209.724,107.151 1208.313,108.134 1207.133,109.477C1205.953,110.82 1205.112,112.373 1204.61,114.136C1204.108,115.899 1203.857,117.703 1203.857,119.548C1203.857,122.125 1204.258,124.356 1205.058,126.241C1205.858,128.127 1207.235,129.585 1209.188,130.615C1211.141,131.646 1213.365,132.162 1215.861,132.162C1217.082,132.162 1218.567,132.006 1220.317,131.694C1222.066,131.382 1223.918,130.873 1225.871,130.168Z" style="fill:rgb(138,165,172);fill-rule:nonzero;stroke:rgb(138,165,172);stroke-width:1px;stroke-linecap:butt;stroke-miterlimit:2;"/>
        <path d="M1236.369,91.105C1236.477,88.311 1236.532,86.168 1236.532,84.676L1236.532,83.374C1239,83.428 1241.008,83.456 1242.554,83.456C1244.67,83.456 1246.636,83.428 1248.454,83.374C1248.372,84.052 1248.318,84.825 1248.291,85.694L1248.088,91.105C1246.026,91.051 1244.127,91.024 1242.391,91.024C1240.655,91.024 1238.647,91.051 1236.369,91.105ZM1234.172,139.567C1234.578,135.498 1234.863,132.094 1235.026,129.354C1235.297,125.014 1235.535,120.009 1235.738,114.339C1235.942,108.67 1236.084,103.285 1236.165,98.185C1238.824,98.24 1240.818,98.267 1242.147,98.267C1243.368,98.267 1245.348,98.24 1248.088,98.185C1247.708,102.905 1247.403,107.408 1247.172,111.695C1246.941,115.981 1246.772,120.89 1246.663,126.424C1246.555,131.958 1246.501,136.339 1246.501,139.567C1244.032,139.513 1242.052,139.486 1240.56,139.486C1239.149,139.486 1237.02,139.513 1234.172,139.567Z" style="fill:rgb(138,165,172);fill-rule:nonzero;stroke:rgb(138,165,172);stroke-width:1px;stroke-linecap:butt;stroke-miterlimit:2;"/>
        <path d="M1256.104,139.567C1256.727,133.409 1257.25,126.492 1257.67,118.815C1258.091,111.138 1258.328,104.262 1258.382,98.185C1260.878,98.24 1262.872,98.267 1264.364,98.267C1266.127,98.267 1267.999,98.24 1269.979,98.185L1269.531,105.103C1270.372,103.909 1271.111,102.96 1271.749,102.254C1272.386,101.549 1273.2,100.857 1274.19,100.179C1275.18,99.501 1276.238,98.959 1277.364,98.552C1278.49,98.145 1279.751,97.819 1281.148,97.575C1282.545,97.331 1284.003,97.209 1285.522,97.209C1287.937,97.209 1290.249,97.514 1292.46,98.124C1294.671,98.735 1296.455,99.704 1297.811,101.034C1299.167,102.363 1300.062,103.814 1300.496,105.388C1300.93,106.961 1301.147,108.629 1301.147,110.392C1301.147,111.125 1301.107,112.291 1301.025,113.892L1300.171,131.673C1300.062,134.142 1299.995,136.773 1299.967,139.567C1297.824,139.513 1295.993,139.486 1294.474,139.486C1292.413,139.486 1290.337,139.513 1288.249,139.567C1288.466,137.207 1288.737,133.091 1289.063,127.218C1289.388,121.345 1289.551,117.459 1289.551,115.56C1289.551,113.417 1289.212,111.695 1288.534,110.392C1287.855,109.09 1286.804,108.1 1285.38,107.422C1283.956,106.744 1282.416,106.405 1280.762,106.405C1279.134,106.405 1277.615,106.717 1276.204,107.341C1274.794,107.965 1273.573,108.873 1272.542,110.067C1271.457,111.288 1270.616,112.793 1270.02,114.584C1269.396,116.482 1268.934,119.616 1268.636,123.983C1268.365,127.862 1268.148,133.057 1267.985,139.567C1265.896,139.513 1264.011,139.486 1262.329,139.486C1260.62,139.486 1258.545,139.513 1256.104,139.567Z" style="fill:rgb(138,165,172);fill-rule:nonzero;stroke:rgb(138,165,172);stroke-width:1px;stroke-linecap:butt;stroke-miterlimit:2;"/>
        <path d="M1312.663,148.153C1318.766,150.16 1324.056,151.164 1328.532,151.164C1330.241,151.164 1331.855,150.954 1333.374,150.534C1334.893,150.115 1336.168,149.506 1337.199,148.707C1338.23,147.909 1339.03,146.827 1339.6,145.46C1340.169,144.093 1340.549,142.509 1340.739,140.709C1340.929,138.909 1341.078,136.182 1341.187,132.528C1340.129,133.966 1339.179,135.085 1338.338,135.885C1337.497,136.685 1336.487,137.404 1335.307,138.041C1334.127,138.679 1332.75,139.194 1331.177,139.588C1329.603,139.981 1327.949,140.178 1326.213,140.178C1323.825,140.178 1321.56,139.805 1319.417,139.059C1317.274,138.313 1315.369,137.139 1313.7,135.539C1312.032,133.938 1310.764,131.924 1309.896,129.496C1309.028,127.069 1308.594,124.539 1308.594,121.908C1308.594,118.137 1309.306,114.57 1310.73,111.206C1312.154,107.843 1314.243,105.076 1316.996,102.905C1319.75,100.735 1322.693,99.243 1325.826,98.43C1328.959,97.616 1332.438,97.209 1336.263,97.209C1338.379,97.209 1340.78,97.338 1343.465,97.595C1346.151,97.853 1349.704,98.375 1354.126,99.162L1353.19,112.052L1352.336,128.195L1352.01,142.793C1351.929,144.446 1351.725,146.039 1351.4,147.57C1351.074,149.102 1350.559,150.485 1349.854,151.718C1349.148,152.952 1348.253,154.043 1347.168,154.991C1346.083,155.94 1344.855,156.706 1343.486,157.289C1342.116,157.872 1340.42,158.353 1338.399,158.732C1336.378,159.112 1334.215,159.302 1331.909,159.302C1329.441,159.302 1326.633,159.139 1323.486,158.814C1320.34,158.488 1316.908,157.878 1313.192,156.983L1312.663,148.153ZM1342.367,106.323C1340.007,105.835 1337.823,105.591 1335.815,105.591C1332.289,105.591 1329.373,106.236 1327.067,107.527C1324.761,108.817 1322.985,110.698 1321.737,113.171C1320.489,115.643 1319.865,118.265 1319.865,121.036C1319.865,123.074 1320.245,124.969 1321.004,126.721C1321.764,128.473 1322.951,129.798 1324.565,130.695C1326.179,131.591 1327.962,132.04 1329.915,132.04C1331.299,132.04 1332.594,131.822 1333.801,131.388C1335.008,130.953 1336.1,130.287 1337.077,129.391C1338.053,128.494 1338.915,127.38 1339.661,126.049C1340.407,124.717 1340.936,123.216 1341.248,121.545C1341.56,119.874 1341.797,117.783 1341.96,115.27C1342.122,112.756 1342.258,109.774 1342.367,106.323Z" style="fill:rgb(138,165,172);fill-rule:nonzero;stroke:rgb(138,165,172);stroke-width:1px;stroke-linecap:butt;stroke-miterlimit:2;"/>
        <path d="M1383.219,114.665C1383.436,112.63 1383.572,110.162 1383.626,107.259C1390.869,107.368 1396.701,107.422 1401.123,107.422C1401.204,105.523 1401.408,99.582 1401.733,89.6C1402.656,89.654 1403.958,89.681 1405.64,89.681C1407.349,89.681 1408.651,89.654 1409.546,89.6L1408.61,107.422L1415.772,107.381L1426.31,107.259C1426.12,109.185 1425.971,111.654 1425.863,114.665C1418.24,114.556 1412.367,114.502 1408.244,114.502C1408.135,116.645 1407.932,122.586 1407.633,132.324C1406.63,132.27 1405.328,132.243 1403.727,132.243C1402.127,132.243 1400.825,132.27 1399.821,132.324L1400.757,114.502L1395.589,114.502L1383.219,114.665Z" style="fill:rgb(138,165,172);fill-rule:nonzero;stroke:rgb(138,165,172);stroke-width:1px;stroke-linecap:butt;stroke-miterlimit:2;"/>
        <path d="M1454.753,139.567L1455.566,128.988L1456.502,108.683L1456.95,91.309C1457.004,88.162 1457.031,85.734 1457.031,84.025C1459.88,84.079 1461.901,84.107 1463.094,84.107C1464.505,84.107 1466.363,84.079 1468.669,84.025L1467.814,97.25L1466.838,118.327L1466.431,134.074L1466.39,139.567C1463.976,139.513 1462.077,139.486 1460.693,139.486C1459.12,139.486 1457.14,139.513 1454.753,139.567ZM1467.733,116.394L1475.993,106.315C1476.698,105.447 1477.539,104.377 1478.516,103.104C1479.492,101.83 1480.726,100.191 1482.218,98.185C1485.04,98.24 1487.101,98.267 1488.403,98.267C1490.194,98.267 1492.459,98.24 1495.199,98.185L1481.812,113.549L1479.411,116.476C1481.391,119.625 1486.884,127.322 1495.89,139.567C1493.449,139.513 1491.36,139.486 1489.624,139.486C1487.888,139.486 1485.731,139.513 1483.154,139.567C1481.581,136.988 1480.299,134.918 1479.309,133.357C1478.319,131.795 1477.403,130.431 1476.563,129.264L1469.645,119.367C1469.455,119.096 1468.818,118.105 1467.733,116.394Z" style="fill:rgb(138,165,172);fill-rule:nonzero;stroke:rgb(138,165,172);stroke-width:1px;stroke-linecap:butt;stroke-miterlimit:2;"/>
        <path d="M1537.435,130.331C1537.082,131.931 1536.58,134.806 1535.929,138.957C1533,139.581 1530.531,140.001 1528.524,140.218C1526.516,140.435 1524.495,140.544 1522.461,140.544C1518.907,140.544 1515.727,140.192 1512.919,139.487C1510.112,138.782 1507.65,137.488 1505.534,135.604C1503.418,133.721 1501.858,131.411 1500.855,128.674C1499.851,125.936 1499.349,123.064 1499.349,120.055C1499.349,116.722 1499.932,113.49 1501.099,110.36C1502.265,107.23 1503.899,104.669 1506.002,102.677C1508.104,100.684 1510.498,99.275 1513.184,98.449C1515.869,97.622 1518.677,97.209 1521.606,97.209C1524.373,97.209 1527.005,97.554 1529.5,98.245C1531.996,98.935 1534.092,100.065 1535.787,101.636C1537.482,103.206 1538.784,105.095 1539.693,107.301C1540.602,109.508 1541.056,111.965 1541.056,114.673C1541.056,115.945 1540.921,117.258 1540.649,118.612L1510.824,118.653C1510.769,119.656 1510.742,120.456 1510.742,121.053C1510.742,122.871 1511.054,124.539 1511.678,126.058C1512.302,127.577 1513.211,128.866 1514.404,129.924C1515.598,130.982 1517.022,131.762 1518.677,132.263C1520.332,132.765 1521.959,133.016 1523.56,133.016C1525.431,133.016 1527.459,132.813 1529.643,132.406C1531.826,131.999 1534.424,131.307 1537.435,130.331ZM1511.149,113.892L1530.192,113.932C1530.192,112.635 1530.151,111.676 1530.07,111.055C1529.989,110.434 1529.806,109.724 1529.521,108.928C1529.236,108.131 1528.849,107.428 1528.361,106.821C1527.873,106.213 1527.303,105.706 1526.652,105.301C1526.001,104.896 1525.248,104.585 1524.394,104.369C1523.539,104.153 1522.624,104.045 1521.647,104.045C1520.508,104.045 1519.402,104.22 1518.331,104.572C1517.259,104.923 1516.276,105.436 1515.381,106.112C1514.486,106.787 1513.76,107.543 1513.204,108.381C1512.648,109.218 1512.234,110.022 1511.963,110.792C1511.692,111.562 1511.42,112.595 1511.149,113.892Z" style="fill:rgb(138,165,172);fill-rule:nonzero;stroke:rgb(138,165,172);stroke-width:1px;stroke-linecap:butt;stroke-miterlimit:2;"/>
        <path d="M1547.16,139.567L1548.34,120.239L1548.665,109.009C1548.72,106.703 1548.747,104.384 1548.747,102.051C1548.747,101.644 1548.72,100.356 1548.665,98.185C1551.188,98.24 1553.046,98.267 1554.24,98.267C1555.623,98.267 1557.454,98.24 1559.733,98.185L1559.53,103.923C1560.56,102.458 1561.442,101.366 1562.175,100.647C1562.907,99.928 1563.728,99.311 1564.636,98.796C1565.545,98.28 1566.555,97.887 1567.668,97.616C1568.78,97.344 1569.919,97.209 1571.086,97.209C1572.171,97.209 1573.283,97.344 1574.422,97.616C1574.422,100.139 1574.544,103.339 1574.788,107.219C1573.188,106.785 1571.737,106.568 1570.435,106.568C1568.861,106.568 1567.471,106.805 1566.264,107.28C1565.057,107.754 1563.972,108.473 1563.009,109.436C1562.046,110.399 1561.252,111.586 1560.628,112.997C1560.113,114.136 1559.733,115.614 1559.489,117.432C1559.272,118.842 1559.089,121.257 1558.94,124.675C1558.79,128.093 1558.716,131.456 1558.716,134.766C1558.716,136.041 1558.757,137.641 1558.838,139.567C1556.776,139.513 1554.891,139.486 1553.182,139.486C1551.5,139.486 1549.493,139.513 1547.16,139.567Z" style="fill:rgb(138,165,172);fill-rule:nonzero;stroke:rgb(138,165,172);stroke-width:1px;stroke-linecap:butt;stroke-miterlimit:2;"/>
        <path d="M1579.264,139.567C1579.888,133.409 1580.41,126.492 1580.831,118.815C1581.251,111.138 1581.489,104.262 1581.543,98.185C1584.039,98.24 1586.032,98.267 1587.524,98.267C1589.288,98.267 1591.159,98.24 1593.14,98.185L1592.692,105.103C1593.533,103.909 1594.272,102.96 1594.91,102.254C1595.547,101.549 1596.361,100.857 1597.351,100.179C1598.341,99.501 1599.399,98.959 1600.525,98.552C1601.651,98.145 1602.912,97.819 1604.309,97.575C1605.706,97.331 1607.164,97.209 1608.683,97.209C1611.098,97.209 1613.41,97.514 1615.621,98.124C1617.832,98.735 1619.615,99.704 1620.972,101.034C1622.328,102.363 1623.223,103.814 1623.657,105.388C1624.091,106.961 1624.308,108.629 1624.308,110.392C1624.308,111.125 1624.268,112.291 1624.186,113.892L1623.332,131.673C1623.223,134.142 1623.155,136.773 1623.128,139.567C1620.985,139.513 1619.154,139.486 1617.635,139.486C1615.573,139.486 1613.498,139.513 1611.41,139.567C1611.627,137.207 1611.898,133.091 1612.223,127.218C1612.549,121.345 1612.712,117.459 1612.712,115.56C1612.712,113.417 1612.373,111.695 1611.694,110.392C1611.016,109.09 1609.965,108.1 1608.541,107.422C1607.117,106.744 1605.577,106.405 1603.923,106.405C1602.295,106.405 1600.776,106.717 1599.365,107.341C1597.955,107.965 1596.734,108.873 1595.703,110.067C1594.618,111.288 1593.777,112.793 1593.18,114.584C1592.556,116.482 1592.095,119.616 1591.797,123.983C1591.526,127.862 1591.309,133.057 1591.146,139.567C1589.057,139.513 1587.172,139.486 1585.49,139.486C1583.781,139.486 1581.706,139.513 1579.264,139.567Z" style="fill:rgb(138,165,172);fill-rule:nonzero;stroke:rgb(138,165,172);stroke-width:1px;stroke-linecap:butt;stroke-miterlimit:2;"/>
        <path d="M1635.091,91.105C1635.2,88.311 1635.254,86.168 1635.254,84.676L1635.254,83.374C1637.722,83.428 1639.73,83.456 1641.276,83.456C1643.392,83.456 1645.359,83.428 1647.176,83.374C1647.095,84.052 1647.041,84.825 1647.013,85.694L1646.81,91.105C1644.748,91.051 1642.849,91.024 1641.113,91.024C1639.377,91.024 1637.37,91.051 1635.091,91.105ZM1632.894,139.567C1633.301,135.498 1633.586,132.094 1633.748,129.354C1634.02,125.014 1634.257,120.009 1634.46,114.339C1634.664,108.67 1634.806,103.285 1634.888,98.185C1637.546,98.24 1639.54,98.267 1640.869,98.267C1642.09,98.267 1644.07,98.24 1646.81,98.185C1646.43,102.905 1646.125,107.408 1645.894,111.695C1645.664,115.981 1645.494,120.89 1645.386,126.424C1645.277,131.958 1645.223,136.339 1645.223,139.567C1642.754,139.513 1640.774,139.486 1639.282,139.486C1637.872,139.486 1635.742,139.513 1632.894,139.567Z" style="fill:rgb(138,165,172);fill-rule:nonzero;stroke:rgb(138,165,172);stroke-width:1px;stroke-linecap:butt;stroke-miterlimit:2;"/>
        <path d="M1654.826,139.567C1655.45,133.409 1655.972,126.492 1656.392,118.815C1656.813,111.138 1657.05,104.262 1657.105,98.185C1659.6,98.24 1661.594,98.267 1663.086,98.267C1664.849,98.267 1666.721,98.24 1668.701,98.185L1668.254,105.103C1669.095,103.909 1669.834,102.96 1670.471,102.254C1671.109,101.549 1671.923,100.857 1672.913,100.179C1673.903,99.501 1674.961,98.959 1676.086,98.552C1677.212,98.145 1678.474,97.819 1679.871,97.575C1681.268,97.331 1682.726,97.209 1684.245,97.209C1686.659,97.209 1688.972,97.514 1691.182,98.124C1693.393,98.735 1695.177,99.704 1696.533,101.034C1697.89,102.363 1698.785,103.814 1699.219,105.388C1699.653,106.961 1699.87,108.629 1699.87,110.392C1699.87,111.125 1699.829,112.291 1699.748,113.892L1698.893,131.673C1698.785,134.142 1698.717,136.773 1698.69,139.567C1696.547,139.513 1694.716,139.486 1693.197,139.486C1691.135,139.486 1689.06,139.513 1686.971,139.567C1687.188,137.207 1687.459,133.091 1687.785,127.218C1688.11,121.345 1688.273,117.459 1688.273,115.56C1688.273,113.417 1687.934,111.695 1687.256,110.392C1686.578,109.09 1685.527,108.1 1684.102,107.422C1682.678,106.744 1681.139,106.405 1679.484,106.405C1677.856,106.405 1676.337,106.717 1674.927,107.341C1673.516,107.965 1672.295,108.873 1671.265,110.067C1670.18,111.288 1669.339,112.793 1668.742,114.584C1668.118,116.482 1667.657,119.616 1667.358,123.983C1667.087,127.862 1666.87,133.057 1666.707,139.567C1664.619,139.513 1662.733,139.486 1661.051,139.486C1659.342,139.486 1657.267,139.513 1654.826,139.567Z" style="fill:rgb(138,165,172);fill-rule:nonzero;stroke:rgb(138,165,172);stroke-width:1px;stroke-linecap:butt;stroke-miterlimit:2;"/>
        <path d="M1711.385,148.153C1717.489,150.16 1722.778,151.164 1727.254,151.164C1728.963,151.164 1730.577,150.954 1732.096,150.534C1733.615,150.115 1734.89,149.506 1735.921,148.707C1736.952,147.909 1737.752,146.827 1738.322,145.46C1738.892,144.093 1739.271,142.509 1739.461,140.709C1739.651,138.909 1739.8,136.182 1739.909,132.528C1738.851,133.966 1737.902,135.085 1737.061,135.885C1736.22,136.685 1735.209,137.404 1734.029,138.041C1732.849,138.679 1731.472,139.194 1729.899,139.588C1728.326,139.981 1726.671,140.178 1724.935,140.178C1722.548,140.178 1720.283,139.805 1718.14,139.059C1715.997,138.313 1714.091,137.139 1712.423,135.539C1710.754,133.938 1709.486,131.924 1708.618,129.496C1707.75,127.069 1707.316,124.539 1707.316,121.908C1707.316,118.137 1708.028,114.57 1709.452,111.206C1710.876,107.843 1712.965,105.076 1715.719,102.905C1718.472,100.735 1721.415,99.243 1724.548,98.43C1727.682,97.616 1731.161,97.209 1734.985,97.209C1737.101,97.209 1739.502,97.338 1742.188,97.595C1744.873,97.853 1748.427,98.375 1752.848,99.162L1751.912,112.052L1751.058,128.195L1750.732,142.793C1750.651,144.446 1750.448,146.039 1750.122,147.57C1749.797,149.102 1749.281,150.485 1748.576,151.718C1747.871,152.952 1746.975,154.043 1745.89,154.991C1744.805,155.94 1743.578,156.706 1742.208,157.289C1740.838,157.872 1739.143,158.353 1737.122,158.732C1735.101,159.112 1732.937,159.302 1730.632,159.302C1728.163,159.302 1725.355,159.139 1722.209,158.814C1719.062,158.488 1715.63,157.878 1711.914,156.983L1711.385,148.153ZM1741.089,106.323C1738.729,105.835 1736.545,105.591 1734.538,105.591C1731.011,105.591 1728.095,106.236 1725.789,107.527C1723.484,108.817 1721.707,110.698 1720.459,113.171C1719.211,115.643 1718.587,118.265 1718.587,121.036C1718.587,123.074 1718.967,124.969 1719.727,126.721C1720.486,128.473 1721.673,129.798 1723.287,130.695C1724.901,131.591 1726.685,132.04 1728.638,132.04C1730.021,132.04 1731.316,131.822 1732.524,131.388C1733.731,130.953 1734.823,130.287 1735.799,129.391C1736.776,128.494 1737.637,127.38 1738.383,126.049C1739.129,124.717 1739.658,123.216 1739.97,121.545C1740.282,119.874 1740.519,117.783 1740.682,115.27C1740.845,112.756 1740.98,109.774 1741.089,106.323Z" style="fill:rgb(138,165,172);fill-rule:nonzero;stroke:rgb(138,165,172);stroke-width:1px;stroke-linecap:butt;stroke-miterlimit:2;"/>
    </g>
</svg>
